<?xml version="1.0" encoding="utf-8" standalone="no"?>
<!DOCTYPE svg PUBLIC "-//W3C//DTD SVG 1.1//EN"
  "http://www.w3.org/Graphics/SVG/1.1/DTD/svg11.dtd">
<!-- Created with matplotlib (https://matplotlib.org/) -->
<svg height="432pt" version="1.1" viewBox="0 0 720 432" width="720pt" xmlns="http://www.w3.org/2000/svg" xmlns:xlink="http://www.w3.org/1999/xlink">
 <defs>
  <style type="text/css">
*{stroke-linecap:butt;stroke-linejoin:round;}
  </style>
 </defs>
 <g id="figure_1">
  <g id="patch_1">
   <path d="M 0 432 
L 720 432 
L 720 0 
L 0 0 
z
" style="fill:#ffffff;"/>
  </g>
  <g id="axes_1">
   <g id="patch_2">
    <path d="M 90 384.48 
L 648 384.48 
L 648 51.84 
L 90 51.84 
z
" style="fill:#ffffff;"/>
   </g>
   <g id="matplotlib.axis_1">
    <g id="xtick_1">
     <g id="line2d_1">
      <defs>
       <path d="M 0 0 
L 0 3.5 
" id="m3e957cc4e7" style="stroke:#000000;stroke-width:0.8;"/>
      </defs>
      <g>
       <use style="stroke:#000000;stroke-width:0.8;" x="115.363636" xlink:href="#m3e957cc4e7" y="384.48"/>
      </g>
     </g>
     <g id="text_1">
      <!-- 4 -->
      <defs>
       <path d="M 37.796875 64.3125 
L 12.890625 25.390625 
L 37.796875 25.390625 
z
M 35.203125 72.90625 
L 47.609375 72.90625 
L 47.609375 25.390625 
L 58.015625 25.390625 
L 58.015625 17.1875 
L 47.609375 17.1875 
L 47.609375 0 
L 37.796875 0 
L 37.796875 17.1875 
L 4.890625 17.1875 
L 4.890625 26.703125 
z
" id="DejaVuSans-52"/>
      </defs>
      <g transform="translate(112.182386 399.078438)scale(0.1 -0.1)">
       <use xlink:href="#DejaVuSans-52"/>
      </g>
     </g>
    </g>
    <g id="xtick_2">
     <g id="line2d_2">
      <g>
       <use style="stroke:#000000;stroke-width:0.8;" x="187.831169" xlink:href="#m3e957cc4e7" y="384.48"/>
      </g>
     </g>
     <g id="text_2">
      <!-- 6 -->
      <defs>
       <path d="M 33.015625 40.375 
Q 26.375 40.375 22.484375 35.828125 
Q 18.609375 31.296875 18.609375 23.390625 
Q 18.609375 15.53125 22.484375 10.953125 
Q 26.375 6.390625 33.015625 6.390625 
Q 39.65625 6.390625 43.53125 10.953125 
Q 47.40625 15.53125 47.40625 23.390625 
Q 47.40625 31.296875 43.53125 35.828125 
Q 39.65625 40.375 33.015625 40.375 
z
M 52.59375 71.296875 
L 52.59375 62.3125 
Q 48.875 64.0625 45.09375 64.984375 
Q 41.3125 65.921875 37.59375 65.921875 
Q 27.828125 65.921875 22.671875 59.328125 
Q 17.53125 52.734375 16.796875 39.40625 
Q 19.671875 43.65625 24.015625 45.921875 
Q 28.375 48.1875 33.59375 48.1875 
Q 44.578125 48.1875 50.953125 41.515625 
Q 57.328125 34.859375 57.328125 23.390625 
Q 57.328125 12.15625 50.6875 5.359375 
Q 44.046875 -1.421875 33.015625 -1.421875 
Q 20.359375 -1.421875 13.671875 8.265625 
Q 6.984375 17.96875 6.984375 36.375 
Q 6.984375 53.65625 15.1875 63.9375 
Q 23.390625 74.21875 37.203125 74.21875 
Q 40.921875 74.21875 44.703125 73.484375 
Q 48.484375 72.75 52.59375 71.296875 
z
" id="DejaVuSans-54"/>
      </defs>
      <g transform="translate(184.649919 399.078438)scale(0.1 -0.1)">
       <use xlink:href="#DejaVuSans-54"/>
      </g>
     </g>
    </g>
    <g id="xtick_3">
     <g id="line2d_3">
      <g>
       <use style="stroke:#000000;stroke-width:0.8;" x="260.298701" xlink:href="#m3e957cc4e7" y="384.48"/>
      </g>
     </g>
     <g id="text_3">
      <!-- 8 -->
      <defs>
       <path d="M 31.78125 34.625 
Q 24.75 34.625 20.71875 30.859375 
Q 16.703125 27.09375 16.703125 20.515625 
Q 16.703125 13.921875 20.71875 10.15625 
Q 24.75 6.390625 31.78125 6.390625 
Q 38.8125 6.390625 42.859375 10.171875 
Q 46.921875 13.96875 46.921875 20.515625 
Q 46.921875 27.09375 42.890625 30.859375 
Q 38.875 34.625 31.78125 34.625 
z
M 21.921875 38.8125 
Q 15.578125 40.375 12.03125 44.71875 
Q 8.5 49.078125 8.5 55.328125 
Q 8.5 64.0625 14.71875 69.140625 
Q 20.953125 74.21875 31.78125 74.21875 
Q 42.671875 74.21875 48.875 69.140625 
Q 55.078125 64.0625 55.078125 55.328125 
Q 55.078125 49.078125 51.53125 44.71875 
Q 48 40.375 41.703125 38.8125 
Q 48.828125 37.15625 52.796875 32.3125 
Q 56.78125 27.484375 56.78125 20.515625 
Q 56.78125 9.90625 50.3125 4.234375 
Q 43.84375 -1.421875 31.78125 -1.421875 
Q 19.734375 -1.421875 13.25 4.234375 
Q 6.78125 9.90625 6.78125 20.515625 
Q 6.78125 27.484375 10.78125 32.3125 
Q 14.796875 37.15625 21.921875 38.8125 
z
M 18.3125 54.390625 
Q 18.3125 48.734375 21.84375 45.5625 
Q 25.390625 42.390625 31.78125 42.390625 
Q 38.140625 42.390625 41.71875 45.5625 
Q 45.3125 48.734375 45.3125 54.390625 
Q 45.3125 60.0625 41.71875 63.234375 
Q 38.140625 66.40625 31.78125 66.40625 
Q 25.390625 66.40625 21.84375 63.234375 
Q 18.3125 60.0625 18.3125 54.390625 
z
" id="DejaVuSans-56"/>
      </defs>
      <g transform="translate(257.117451 399.078438)scale(0.1 -0.1)">
       <use xlink:href="#DejaVuSans-56"/>
      </g>
     </g>
    </g>
    <g id="xtick_4">
     <g id="line2d_4">
      <g>
       <use style="stroke:#000000;stroke-width:0.8;" x="332.766234" xlink:href="#m3e957cc4e7" y="384.48"/>
      </g>
     </g>
     <g id="text_4">
      <!-- 10 -->
      <defs>
       <path d="M 12.40625 8.296875 
L 28.515625 8.296875 
L 28.515625 63.921875 
L 10.984375 60.40625 
L 10.984375 69.390625 
L 28.421875 72.90625 
L 38.28125 72.90625 
L 38.28125 8.296875 
L 54.390625 8.296875 
L 54.390625 0 
L 12.40625 0 
z
" id="DejaVuSans-49"/>
       <path d="M 31.78125 66.40625 
Q 24.171875 66.40625 20.328125 58.90625 
Q 16.5 51.421875 16.5 36.375 
Q 16.5 21.390625 20.328125 13.890625 
Q 24.171875 6.390625 31.78125 6.390625 
Q 39.453125 6.390625 43.28125 13.890625 
Q 47.125 21.390625 47.125 36.375 
Q 47.125 51.421875 43.28125 58.90625 
Q 39.453125 66.40625 31.78125 66.40625 
z
M 31.78125 74.21875 
Q 44.046875 74.21875 50.515625 64.515625 
Q 56.984375 54.828125 56.984375 36.375 
Q 56.984375 17.96875 50.515625 8.265625 
Q 44.046875 -1.421875 31.78125 -1.421875 
Q 19.53125 -1.421875 13.0625 8.265625 
Q 6.59375 17.96875 6.59375 36.375 
Q 6.59375 54.828125 13.0625 64.515625 
Q 19.53125 74.21875 31.78125 74.21875 
z
" id="DejaVuSans-48"/>
      </defs>
      <g transform="translate(326.403734 399.078438)scale(0.1 -0.1)">
       <use xlink:href="#DejaVuSans-49"/>
       <use x="63.623047" xlink:href="#DejaVuSans-48"/>
      </g>
     </g>
    </g>
    <g id="xtick_5">
     <g id="line2d_5">
      <g>
       <use style="stroke:#000000;stroke-width:0.8;" x="405.233766" xlink:href="#m3e957cc4e7" y="384.48"/>
      </g>
     </g>
     <g id="text_5">
      <!-- 12 -->
      <defs>
       <path d="M 19.1875 8.296875 
L 53.609375 8.296875 
L 53.609375 0 
L 7.328125 0 
L 7.328125 8.296875 
Q 12.9375 14.109375 22.625 23.890625 
Q 32.328125 33.6875 34.8125 36.53125 
Q 39.546875 41.84375 41.421875 45.53125 
Q 43.3125 49.21875 43.3125 52.78125 
Q 43.3125 58.59375 39.234375 62.25 
Q 35.15625 65.921875 28.609375 65.921875 
Q 23.96875 65.921875 18.8125 64.3125 
Q 13.671875 62.703125 7.8125 59.421875 
L 7.8125 69.390625 
Q 13.765625 71.78125 18.9375 73 
Q 24.125 74.21875 28.421875 74.21875 
Q 39.75 74.21875 46.484375 68.546875 
Q 53.21875 62.890625 53.21875 53.421875 
Q 53.21875 48.921875 51.53125 44.890625 
Q 49.859375 40.875 45.40625 35.40625 
Q 44.1875 33.984375 37.640625 27.21875 
Q 31.109375 20.453125 19.1875 8.296875 
z
" id="DejaVuSans-50"/>
      </defs>
      <g transform="translate(398.871266 399.078438)scale(0.1 -0.1)">
       <use xlink:href="#DejaVuSans-49"/>
       <use x="63.623047" xlink:href="#DejaVuSans-50"/>
      </g>
     </g>
    </g>
    <g id="xtick_6">
     <g id="line2d_6">
      <g>
       <use style="stroke:#000000;stroke-width:0.8;" x="477.701299" xlink:href="#m3e957cc4e7" y="384.48"/>
      </g>
     </g>
     <g id="text_6">
      <!-- 14 -->
      <g transform="translate(471.338799 399.078438)scale(0.1 -0.1)">
       <use xlink:href="#DejaVuSans-49"/>
       <use x="63.623047" xlink:href="#DejaVuSans-52"/>
      </g>
     </g>
    </g>
    <g id="xtick_7">
     <g id="line2d_7">
      <g>
       <use style="stroke:#000000;stroke-width:0.8;" x="550.168831" xlink:href="#m3e957cc4e7" y="384.48"/>
      </g>
     </g>
     <g id="text_7">
      <!-- 16 -->
      <g transform="translate(543.806331 399.078438)scale(0.1 -0.1)">
       <use xlink:href="#DejaVuSans-49"/>
       <use x="63.623047" xlink:href="#DejaVuSans-54"/>
      </g>
     </g>
    </g>
    <g id="xtick_8">
     <g id="line2d_8">
      <g>
       <use style="stroke:#000000;stroke-width:0.8;" x="622.636364" xlink:href="#m3e957cc4e7" y="384.48"/>
      </g>
     </g>
     <g id="text_8">
      <!-- 18 -->
      <g transform="translate(616.273864 399.078438)scale(0.1 -0.1)">
       <use xlink:href="#DejaVuSans-49"/>
       <use x="63.623047" xlink:href="#DejaVuSans-56"/>
      </g>
     </g>
    </g>
    <g id="text_9">
     <!-- Weight -->
     <defs>
      <path d="M 3.328125 72.90625 
L 13.28125 72.90625 
L 28.609375 11.28125 
L 43.890625 72.90625 
L 54.984375 72.90625 
L 70.3125 11.28125 
L 85.59375 72.90625 
L 95.609375 72.90625 
L 77.296875 0 
L 64.890625 0 
L 49.515625 63.28125 
L 33.984375 0 
L 21.578125 0 
z
" id="DejaVuSans-87"/>
      <path d="M 56.203125 29.59375 
L 56.203125 25.203125 
L 14.890625 25.203125 
Q 15.484375 15.921875 20.484375 11.0625 
Q 25.484375 6.203125 34.421875 6.203125 
Q 39.59375 6.203125 44.453125 7.46875 
Q 49.3125 8.734375 54.109375 11.28125 
L 54.109375 2.78125 
Q 49.265625 0.734375 44.1875 -0.34375 
Q 39.109375 -1.421875 33.890625 -1.421875 
Q 20.796875 -1.421875 13.15625 6.1875 
Q 5.515625 13.8125 5.515625 26.8125 
Q 5.515625 40.234375 12.765625 48.109375 
Q 20.015625 56 32.328125 56 
Q 43.359375 56 49.78125 48.890625 
Q 56.203125 41.796875 56.203125 29.59375 
z
M 47.21875 32.234375 
Q 47.125 39.59375 43.09375 43.984375 
Q 39.0625 48.390625 32.421875 48.390625 
Q 24.90625 48.390625 20.390625 44.140625 
Q 15.875 39.890625 15.1875 32.171875 
z
" id="DejaVuSans-101"/>
      <path d="M 9.421875 54.6875 
L 18.40625 54.6875 
L 18.40625 0 
L 9.421875 0 
z
M 9.421875 75.984375 
L 18.40625 75.984375 
L 18.40625 64.59375 
L 9.421875 64.59375 
z
" id="DejaVuSans-105"/>
      <path d="M 45.40625 27.984375 
Q 45.40625 37.75 41.375 43.109375 
Q 37.359375 48.484375 30.078125 48.484375 
Q 22.859375 48.484375 18.828125 43.109375 
Q 14.796875 37.75 14.796875 27.984375 
Q 14.796875 18.265625 18.828125 12.890625 
Q 22.859375 7.515625 30.078125 7.515625 
Q 37.359375 7.515625 41.375 12.890625 
Q 45.40625 18.265625 45.40625 27.984375 
z
M 54.390625 6.78125 
Q 54.390625 -7.171875 48.1875 -13.984375 
Q 42 -20.796875 29.203125 -20.796875 
Q 24.46875 -20.796875 20.265625 -20.09375 
Q 16.0625 -19.390625 12.109375 -17.921875 
L 12.109375 -9.1875 
Q 16.0625 -11.328125 19.921875 -12.34375 
Q 23.78125 -13.375 27.78125 -13.375 
Q 36.625 -13.375 41.015625 -8.765625 
Q 45.40625 -4.15625 45.40625 5.171875 
L 45.40625 9.625 
Q 42.625 4.78125 38.28125 2.390625 
Q 33.9375 0 27.875 0 
Q 17.828125 0 11.671875 7.65625 
Q 5.515625 15.328125 5.515625 27.984375 
Q 5.515625 40.671875 11.671875 48.328125 
Q 17.828125 56 27.875 56 
Q 33.9375 56 38.28125 53.609375 
Q 42.625 51.21875 45.40625 46.390625 
L 45.40625 54.6875 
L 54.390625 54.6875 
z
" id="DejaVuSans-103"/>
      <path d="M 54.890625 33.015625 
L 54.890625 0 
L 45.90625 0 
L 45.90625 32.71875 
Q 45.90625 40.484375 42.875 44.328125 
Q 39.84375 48.1875 33.796875 48.1875 
Q 26.515625 48.1875 22.3125 43.546875 
Q 18.109375 38.921875 18.109375 30.90625 
L 18.109375 0 
L 9.078125 0 
L 9.078125 75.984375 
L 18.109375 75.984375 
L 18.109375 46.1875 
Q 21.34375 51.125 25.703125 53.5625 
Q 30.078125 56 35.796875 56 
Q 45.21875 56 50.046875 50.171875 
Q 54.890625 44.34375 54.890625 33.015625 
z
" id="DejaVuSans-104"/>
      <path d="M 18.3125 70.21875 
L 18.3125 54.6875 
L 36.8125 54.6875 
L 36.8125 47.703125 
L 18.3125 47.703125 
L 18.3125 18.015625 
Q 18.3125 11.328125 20.140625 9.421875 
Q 21.96875 7.515625 27.59375 7.515625 
L 36.8125 7.515625 
L 36.8125 0 
L 27.59375 0 
Q 17.1875 0 13.234375 3.875 
Q 9.28125 7.765625 9.28125 18.015625 
L 9.28125 47.703125 
L 2.6875 47.703125 
L 2.6875 54.6875 
L 9.28125 54.6875 
L 9.28125 70.21875 
z
" id="DejaVuSans-116"/>
     </defs>
     <g transform="translate(351.291406 412.756563)scale(0.1 -0.1)">
      <use xlink:href="#DejaVuSans-87"/>
      <use x="98.798828" xlink:href="#DejaVuSans-101"/>
      <use x="160.322266" xlink:href="#DejaVuSans-105"/>
      <use x="188.105469" xlink:href="#DejaVuSans-103"/>
      <use x="251.582031" xlink:href="#DejaVuSans-104"/>
      <use x="314.960938" xlink:href="#DejaVuSans-116"/>
     </g>
    </g>
   </g>
   <g id="matplotlib.axis_2">
    <g id="ytick_1">
     <g id="line2d_9">
      <defs>
       <path d="M 0 0 
L -3.5 0 
" id="m9779049636" style="stroke:#000000;stroke-width:0.8;"/>
      </defs>
      <g>
       <use style="stroke:#000000;stroke-width:0.8;" x="90" xlink:href="#m9779049636" y="339.928212"/>
      </g>
     </g>
     <g id="text_10">
      <!-- 10 -->
      <g transform="translate(70.275 343.72743)scale(0.1 -0.1)">
       <use xlink:href="#DejaVuSans-49"/>
       <use x="63.623047" xlink:href="#DejaVuSans-48"/>
      </g>
     </g>
    </g>
    <g id="ytick_2">
     <g id="line2d_10">
      <g>
       <use style="stroke:#000000;stroke-width:0.8;" x="90" xlink:href="#m9779049636" y="278.993778"/>
      </g>
     </g>
     <g id="text_11">
      <!-- 15 -->
      <defs>
       <path d="M 10.796875 72.90625 
L 49.515625 72.90625 
L 49.515625 64.59375 
L 19.828125 64.59375 
L 19.828125 46.734375 
Q 21.96875 47.46875 24.109375 47.828125 
Q 26.265625 48.1875 28.421875 48.1875 
Q 40.625 48.1875 47.75 41.5 
Q 54.890625 34.8125 54.890625 23.390625 
Q 54.890625 11.625 47.5625 5.09375 
Q 40.234375 -1.421875 26.90625 -1.421875 
Q 22.3125 -1.421875 17.546875 -0.640625 
Q 12.796875 0.140625 7.71875 1.703125 
L 7.71875 11.625 
Q 12.109375 9.234375 16.796875 8.0625 
Q 21.484375 6.890625 26.703125 6.890625 
Q 35.15625 6.890625 40.078125 11.328125 
Q 45.015625 15.765625 45.015625 23.390625 
Q 45.015625 31 40.078125 35.4375 
Q 35.15625 39.890625 26.703125 39.890625 
Q 22.75 39.890625 18.8125 39.015625 
Q 14.890625 38.140625 10.796875 36.28125 
z
" id="DejaVuSans-53"/>
      </defs>
      <g transform="translate(70.275 282.792997)scale(0.1 -0.1)">
       <use xlink:href="#DejaVuSans-49"/>
       <use x="63.623047" xlink:href="#DejaVuSans-53"/>
      </g>
     </g>
    </g>
    <g id="ytick_3">
     <g id="line2d_11">
      <g>
       <use style="stroke:#000000;stroke-width:0.8;" x="90" xlink:href="#m9779049636" y="218.059345"/>
      </g>
     </g>
     <g id="text_12">
      <!-- 20 -->
      <g transform="translate(70.275 221.858564)scale(0.1 -0.1)">
       <use xlink:href="#DejaVuSans-50"/>
       <use x="63.623047" xlink:href="#DejaVuSans-48"/>
      </g>
     </g>
    </g>
    <g id="ytick_4">
     <g id="line2d_12">
      <g>
       <use style="stroke:#000000;stroke-width:0.8;" x="90" xlink:href="#m9779049636" y="157.124912"/>
      </g>
     </g>
     <g id="text_13">
      <!-- 25 -->
      <g transform="translate(70.275 160.92413)scale(0.1 -0.1)">
       <use xlink:href="#DejaVuSans-50"/>
       <use x="63.623047" xlink:href="#DejaVuSans-53"/>
      </g>
     </g>
    </g>
    <g id="ytick_5">
     <g id="line2d_13">
      <g>
       <use style="stroke:#000000;stroke-width:0.8;" x="90" xlink:href="#m9779049636" y="96.190478"/>
      </g>
     </g>
     <g id="text_14">
      <!-- 30 -->
      <defs>
       <path d="M 40.578125 39.3125 
Q 47.65625 37.796875 51.625 33 
Q 55.609375 28.21875 55.609375 21.1875 
Q 55.609375 10.40625 48.1875 4.484375 
Q 40.765625 -1.421875 27.09375 -1.421875 
Q 22.515625 -1.421875 17.65625 -0.515625 
Q 12.796875 0.390625 7.625 2.203125 
L 7.625 11.71875 
Q 11.71875 9.328125 16.59375 8.109375 
Q 21.484375 6.890625 26.8125 6.890625 
Q 36.078125 6.890625 40.9375 10.546875 
Q 45.796875 14.203125 45.796875 21.1875 
Q 45.796875 27.640625 41.28125 31.265625 
Q 36.765625 34.90625 28.71875 34.90625 
L 20.21875 34.90625 
L 20.21875 43.015625 
L 29.109375 43.015625 
Q 36.375 43.015625 40.234375 45.921875 
Q 44.09375 48.828125 44.09375 54.296875 
Q 44.09375 59.90625 40.109375 62.90625 
Q 36.140625 65.921875 28.71875 65.921875 
Q 24.65625 65.921875 20.015625 65.03125 
Q 15.375 64.15625 9.8125 62.3125 
L 9.8125 71.09375 
Q 15.4375 72.65625 20.34375 73.4375 
Q 25.25 74.21875 29.59375 74.21875 
Q 40.828125 74.21875 47.359375 69.109375 
Q 53.90625 64.015625 53.90625 55.328125 
Q 53.90625 49.265625 50.4375 45.09375 
Q 46.96875 40.921875 40.578125 39.3125 
z
" id="DejaVuSans-51"/>
      </defs>
      <g transform="translate(70.275 99.989697)scale(0.1 -0.1)">
       <use xlink:href="#DejaVuSans-51"/>
       <use x="63.623047" xlink:href="#DejaVuSans-48"/>
      </g>
     </g>
    </g>
    <g id="text_15">
     <!-- log2(count) -->
     <defs>
      <path d="M 9.421875 75.984375 
L 18.40625 75.984375 
L 18.40625 0 
L 9.421875 0 
z
" id="DejaVuSans-108"/>
      <path d="M 30.609375 48.390625 
Q 23.390625 48.390625 19.1875 42.75 
Q 14.984375 37.109375 14.984375 27.296875 
Q 14.984375 17.484375 19.15625 11.84375 
Q 23.34375 6.203125 30.609375 6.203125 
Q 37.796875 6.203125 41.984375 11.859375 
Q 46.1875 17.53125 46.1875 27.296875 
Q 46.1875 37.015625 41.984375 42.703125 
Q 37.796875 48.390625 30.609375 48.390625 
z
M 30.609375 56 
Q 42.328125 56 49.015625 48.375 
Q 55.71875 40.765625 55.71875 27.296875 
Q 55.71875 13.875 49.015625 6.21875 
Q 42.328125 -1.421875 30.609375 -1.421875 
Q 18.84375 -1.421875 12.171875 6.21875 
Q 5.515625 13.875 5.515625 27.296875 
Q 5.515625 40.765625 12.171875 48.375 
Q 18.84375 56 30.609375 56 
z
" id="DejaVuSans-111"/>
      <path d="M 31 75.875 
Q 24.46875 64.65625 21.28125 53.65625 
Q 18.109375 42.671875 18.109375 31.390625 
Q 18.109375 20.125 21.3125 9.0625 
Q 24.515625 -2 31 -13.1875 
L 23.1875 -13.1875 
Q 15.875 -1.703125 12.234375 9.375 
Q 8.59375 20.453125 8.59375 31.390625 
Q 8.59375 42.28125 12.203125 53.3125 
Q 15.828125 64.359375 23.1875 75.875 
z
" id="DejaVuSans-40"/>
      <path d="M 48.78125 52.59375 
L 48.78125 44.1875 
Q 44.96875 46.296875 41.140625 47.34375 
Q 37.3125 48.390625 33.40625 48.390625 
Q 24.65625 48.390625 19.8125 42.84375 
Q 14.984375 37.3125 14.984375 27.296875 
Q 14.984375 17.28125 19.8125 11.734375 
Q 24.65625 6.203125 33.40625 6.203125 
Q 37.3125 6.203125 41.140625 7.25 
Q 44.96875 8.296875 48.78125 10.40625 
L 48.78125 2.09375 
Q 45.015625 0.34375 40.984375 -0.53125 
Q 36.96875 -1.421875 32.421875 -1.421875 
Q 20.0625 -1.421875 12.78125 6.34375 
Q 5.515625 14.109375 5.515625 27.296875 
Q 5.515625 40.671875 12.859375 48.328125 
Q 20.21875 56 33.015625 56 
Q 37.15625 56 41.109375 55.140625 
Q 45.0625 54.296875 48.78125 52.59375 
z
" id="DejaVuSans-99"/>
      <path d="M 8.5 21.578125 
L 8.5 54.6875 
L 17.484375 54.6875 
L 17.484375 21.921875 
Q 17.484375 14.15625 20.5 10.265625 
Q 23.53125 6.390625 29.59375 6.390625 
Q 36.859375 6.390625 41.078125 11.03125 
Q 45.3125 15.671875 45.3125 23.6875 
L 45.3125 54.6875 
L 54.296875 54.6875 
L 54.296875 0 
L 45.3125 0 
L 45.3125 8.40625 
Q 42.046875 3.421875 37.71875 1 
Q 33.40625 -1.421875 27.6875 -1.421875 
Q 18.265625 -1.421875 13.375 4.4375 
Q 8.5 10.296875 8.5 21.578125 
z
M 31.109375 56 
z
" id="DejaVuSans-117"/>
      <path d="M 54.890625 33.015625 
L 54.890625 0 
L 45.90625 0 
L 45.90625 32.71875 
Q 45.90625 40.484375 42.875 44.328125 
Q 39.84375 48.1875 33.796875 48.1875 
Q 26.515625 48.1875 22.3125 43.546875 
Q 18.109375 38.921875 18.109375 30.90625 
L 18.109375 0 
L 9.078125 0 
L 9.078125 54.6875 
L 18.109375 54.6875 
L 18.109375 46.1875 
Q 21.34375 51.125 25.703125 53.5625 
Q 30.078125 56 35.796875 56 
Q 45.21875 56 50.046875 50.171875 
Q 54.890625 44.34375 54.890625 33.015625 
z
" id="DejaVuSans-110"/>
      <path d="M 8.015625 75.875 
L 15.828125 75.875 
Q 23.140625 64.359375 26.78125 53.3125 
Q 30.421875 42.28125 30.421875 31.390625 
Q 30.421875 20.453125 26.78125 9.375 
Q 23.140625 -1.703125 15.828125 -13.1875 
L 8.015625 -13.1875 
Q 14.5 -2 17.703125 9.0625 
Q 20.90625 20.125 20.90625 31.390625 
Q 20.90625 42.671875 17.703125 53.65625 
Q 14.5 64.65625 8.015625 75.875 
z
" id="DejaVuSans-41"/>
     </defs>
     <g transform="translate(64.195312 246.971719)rotate(-90)scale(0.1 -0.1)">
      <use xlink:href="#DejaVuSans-108"/>
      <use x="27.783203" xlink:href="#DejaVuSans-111"/>
      <use x="88.964844" xlink:href="#DejaVuSans-103"/>
      <use x="152.441406" xlink:href="#DejaVuSans-50"/>
      <use x="216.064453" xlink:href="#DejaVuSans-40"/>
      <use x="255.078125" xlink:href="#DejaVuSans-99"/>
      <use x="310.058594" xlink:href="#DejaVuSans-111"/>
      <use x="371.240234" xlink:href="#DejaVuSans-117"/>
      <use x="434.619141" xlink:href="#DejaVuSans-110"/>
      <use x="497.998047" xlink:href="#DejaVuSans-116"/>
      <use x="537.207031" xlink:href="#DejaVuSans-41"/>
     </g>
    </g>
   </g>
   <g id="line2d_14">
    <path clip-path="url(#p07553b710d)" d="M 115.363636 369.36 
L 151.597403 369.36 
L 151.597403 336.906747 
L 187.831169 336.906747 
L 187.831169 318.329215 
L 224.064935 318.329215 
L 224.064935 298.617521 
L 239.103397 298.565179 
L 239.103397 298.228702 
L 248.633965 298.190289 
L 248.633965 297.338326 
L 254.141497 297.291171 
L 254.141497 297.147446 
L 260.298701 297.08728 
L 260.298701 270.285098 
L 267.279136 270.207777 
L 267.279136 269.896733 
L 275.337164 269.849462 
L 275.337164 267.66225 
L 279.885588 267.659997 
L 279.885588 267.54631 
L 284.867731 267.544072 
L 284.867731 266.063596 
L 290.375264 266.050228 
L 290.375264 265.757665 
L 296.532468 265.729381 
L 296.532468 238.045546 
L 303.512903 238.01928 
L 303.512903 237.770277 
L 311.57093 237.707471 
L 311.57093 235.540618 
L 316.119355 235.508969 
L 316.119355 235.419807 
L 321.101497 235.361977 
L 321.101497 234.451437 
L 326.60903 234.350222 
L 326.60903 234.001507 
L 329.597229 233.972301 
L 329.597229 233.824118 
L 332.766234 233.784293 
L 332.766234 210.756541 
L 337.911429 210.647866 
L 337.911429 210.633341 
L 339.744857 210.631671 
L 339.744857 210.329358 
L 343.62187 210.295988 
L 343.62187 210.162196 
L 347.803247 210.117494 
L 347.803247 208.205912 
L 352.354208 208.153957 
L 352.354208 207.862306 
L 356.042805 207.752972 
L 356.042805 207.746992 
L 357.336351 207.741033 
L 357.336351 206.443441 
L 360.017649 206.415723 
L 360.017649 206.329433 
L 362.843883 206.293374 
L 362.843883 205.562172 
L 365.829545 205.506783 
L 365.829545 205.328676 
L 369 205.229748 
L 369 186.067006 
L 372.373364 186.029505 
L 372.373364 185.87252 
L 375.978623 185.817788 
L 375.978623 185.25088 
L 379.855636 185.141622 
L 379.855636 184.947135 
L 381.902844 184.907612 
L 381.902844 184.828109 
L 384.037013 184.787101 
L 384.037013 182.323405 
L 386.261766 182.278098 
L 386.261766 182.200866 
L 388.587974 182.126505 
L 388.587974 181.764248 
L 391.01926 181.686503 
L 391.01926 181.491041 
L 393.570117 181.393454 
L 393.570117 179.705504 
L 395.566597 179.597483 
L 395.566597 179.578973 
L 396.251416 179.578973 
L 396.251416 179.374971 
L 397.642792 179.349166 
L 397.642792 179.247124 
L 399.077649 179.222535 
L 399.077649 178.239207 
L 400.54874 178.212881 
L 400.54874 178.083654 
L 402.063312 178.051191 
L 402.063312 177.706823 
L 403.624987 177.672167 
L 403.624987 177.471775 
L 405.233766 177.433257 
L 405.233766 160.465264 
L 407.744766 160.368787 
L 407.744766 160.349507 
L 408.60713 160.349507 
L 408.60713 160.042559 
L 410.378961 160.021194 
L 410.378961 159.917299 
L 412.21239 159.884909 
L 412.21239 159.132206 
L 414.114662 159.101964 
L 414.114662 158.928537 
L 416.089403 158.89445 
L 416.089403 158.527977 
L 418.13661 158.480516 
L 418.13661 158.28096 
L 420.270779 158.234959 
L 420.270779 155.253325 
L 422.495532 155.209437 
L 422.495532 155.013705 
L 424.82174 154.949363 
L 424.82174 154.380378 
L 427.253026 154.32038 
L 427.253026 153.969758 
L 429.803883 153.895539 
L 429.803883 151.886134 
L 432.485182 151.79732 
L 432.485182 151.443773 
L 435.311416 151.349249 
L 435.311416 150.132886 
L 438.297078 150.025839 
L 438.297078 149.550434 
L 439.858753 149.550434 
L 439.858753 149.411008 
L 441.467532 149.411008 
L 441.467532 133.700652 
L 444.840896 133.643868 
L 444.840896 133.304367 
L 448.446156 133.236458 
L 448.446156 132.369724 
L 452.323169 132.274604 
L 452.323169 131.900149 
L 456.504545 131.798907 
L 456.504545 128.664997 
L 461.055506 128.569016 
L 461.055506 128.104098 
L 463.486792 128.104098 
L 463.486792 127.962863 
L 466.037649 127.962863 
L 466.037649 126.227133 
L 468.718948 126.227133 
L 468.718948 126.093104 
L 471.545182 126.093104 
L 471.545182 125.298221 
L 474.530844 125.298221 
L 474.530844 125.133356 
L 477.701299 125.133356 
L 477.701299 109.667617 
L 484.679922 109.565905 
L 484.679922 109.050215 
L 492.738312 108.945025 
L 492.738312 106.465291 
L 497.289273 106.465291 
L 497.289273 106.345262 
L 502.271416 106.345262 
L 502.271416 105.487663 
L 507.778948 105.487663 
L 507.778948 105.30063 
L 513.935065 105.30063 
L 513.935065 90.690604 
L 520.913688 90.690604 
L 520.913688 90.566525 
L 528.972078 90.566525 
L 528.972078 89.253348 
L 538.505182 89.253348 
L 538.505182 89.062698 
L 550.168831 89.062698 
L 550.168831 77.301538 
L 565.205844 77.301538 
L 565.205844 76.939165 
L 586.402597 76.939165 
L 586.402597 69.698167 
L 622.636364 69.698167 
L 622.636364 67.071921 
L 622.636364 67.071921 
" style="fill:none;stroke:#0000ff;stroke-linecap:square;stroke-width:0.5;"/>
   </g>
   <g id="line2d_15">
    <path clip-path="url(#p07553b710d)" d="M 115.363636 369.36 
L 151.597403 369.36 
L 151.597403 336.906747 
L 187.831169 336.906747 
L 187.831169 318.511099 
L 224.064935 318.511099 
L 224.064935 298.509736 
L 239.103397 298.496715 
L 239.103397 298.142391 
L 248.633965 298.086674 
L 248.633965 297.35204 
L 254.141497 297.306368 
L 254.141497 297.076772 
L 260.298701 296.983976 
L 260.298701 270.103267 
L 263.672427 270.103267 
L 263.672427 269.990691 
L 267.279136 269.990691 
L 267.279136 269.717588 
L 275.337164 269.679323 
L 275.337164 267.598992 
L 279.885588 267.598431 
L 279.885588 267.4353 
L 284.867731 267.434744 
L 284.867731 266.031222 
L 290.375264 266.029169 
L 290.375264 265.713995 
L 296.532468 265.677226 
L 296.532468 237.955944 
L 303.512903 237.929033 
L 303.512903 237.688719 
L 311.57093 237.63539 
L 311.57093 235.535815 
L 316.119355 235.504852 
L 316.119355 235.387251 
L 321.101497 235.325006 
L 321.101497 234.477525 
L 326.60903 234.387192 
L 326.60903 234.042035 
L 329.597229 234.018413 
L 329.597229 233.872563 
L 332.766234 233.825844 
L 332.766234 210.813347 
L 336.139597 210.802834 
L 336.139597 210.698518 
L 339.744857 210.6819 
L 339.744857 210.394933 
L 343.62187 210.355411 
L 343.62187 210.221169 
L 347.803247 210.184896 
L 347.803247 208.214042 
L 352.354208 208.164851 
L 352.354208 207.857565 
L 356.365286 207.746796 
L 356.365286 207.745873 
L 357.336351 207.74094 
L 357.336351 206.493874 
L 360.017649 206.470413 
L 360.017649 206.376191 
L 362.843883 206.343222 
L 362.843883 205.581565 
L 365.829545 205.530011 
L 365.829545 205.362328 
L 369 205.265065 
L 369 186.052219 
L 372.373364 186.015354 
L 372.373364 185.85071 
L 375.978623 185.799788 
L 375.978623 185.269742 
L 379.855636 185.164198 
L 379.855636 184.973093 
L 382.428234 184.869365 
L 382.428234 184.861639 
L 384.037013 184.82973 
L 384.037013 182.350814 
L 386.261766 182.307235 
L 386.261766 182.230372 
L 388.587974 182.155068 
L 388.587974 181.775864 
L 391.01926 181.70597 
L 391.01926 181.518647 
L 393.570117 181.42544 
L 393.570117 179.778495 
L 395.566597 179.674694 
L 395.566597 179.657476 
L 396.251416 179.657476 
L 396.251416 179.448358 
L 397.642792 179.423834 
L 397.642792 179.330421 
L 399.077649 179.3061 
L 399.077649 178.284669 
L 400.54874 178.258438 
L 400.54874 178.134237 
L 402.063312 178.101616 
L 402.063312 177.764283 
L 403.624987 177.731685 
L 403.624987 177.533895 
L 405.233766 177.496322 
L 405.233766 160.366763 
L 407.744766 160.272856 
L 407.744766 160.253945 
L 408.60713 160.253945 
L 408.60713 159.931994 
L 410.378961 159.911471 
L 410.378961 159.813464 
L 412.21239 159.781227 
L 412.21239 159.059733 
L 414.114662 159.03117 
L 414.114662 158.859073 
L 416.089403 158.824386 
L 416.089403 158.472309 
L 418.13661 158.425355 
L 418.13661 158.241035 
L 420.270779 158.19738 
L 420.270779 155.187958 
L 422.495532 155.14646 
L 422.495532 154.953031 
L 424.82174 154.889831 
L 424.82174 154.311255 
L 427.253026 154.252405 
L 427.253026 153.916663 
L 429.803883 153.844324 
L 429.803883 151.887201 
L 432.485182 151.798545 
L 432.485182 151.446097 
L 435.311416 151.355993 
L 435.311416 150.126608 
L 438.297078 150.022904 
L 438.297078 149.556633 
L 439.858753 149.556633 
L 439.858753 149.420183 
L 441.467532 149.420183 
L 441.467532 133.602933 
L 444.840896 133.547617 
L 444.840896 133.195506 
L 448.446156 133.130278 
L 448.446156 132.296222 
L 452.323169 132.202447 
L 452.323169 131.84447 
L 456.504545 131.748149 
L 456.504545 128.644962 
L 461.055506 128.551309 
L 461.055506 128.08085 
L 463.486792 128.08085 
L 463.486792 127.940665 
L 466.037649 127.940665 
L 466.037649 126.250186 
L 468.718948 126.250186 
L 468.718948 126.117885 
L 471.545182 126.117885 
L 471.545182 125.317773 
L 474.530844 125.317773 
L 474.530844 125.15582 
L 477.701299 125.15582 
L 477.701299 109.594539 
L 484.679922 109.490237 
L 484.679922 108.990807 
L 492.738312 108.889455 
L 492.738312 106.4523 
L 497.289273 106.4523 
L 497.289273 106.331013 
L 502.271416 106.331013 
L 502.271416 105.49304 
L 507.778948 105.49304 
L 507.778948 105.305533 
L 513.935065 105.305533 
L 513.935065 90.68047 
L 520.913688 90.68047 
L 520.913688 90.558346 
L 528.972078 90.558346 
L 528.972078 89.234406 
L 538.505182 89.234406 
L 538.505182 89.047341 
L 550.168831 89.047341 
L 550.168831 77.334203 
L 565.205844 77.334203 
L 565.205844 76.949943 
L 586.402597 76.949943 
L 586.402597 69.72965 
L 622.636364 69.72965 
L 622.636364 67.082434 
L 622.636364 67.082434 
" style="fill:none;stroke:#0000ff;stroke-linecap:square;stroke-width:0.5;"/>
   </g>
   <g id="line2d_16">
    <path clip-path="url(#p07553b710d)" d="M 115.363636 369.36 
L 151.597403 369.36 
L 151.597403 336.906747 
L 187.831169 336.906747 
L 187.831169 318.419922 
L 224.064935 318.419922 
L 224.064935 298.651955 
L 239.103397 298.609332 
L 239.103397 298.272018 
L 248.633965 298.238319 
L 248.633965 297.303328 
L 254.141497 297.262332 
L 254.141497 297.132385 
L 260.298701 297.073771 
L 260.298701 270.397936 
L 267.279136 270.326016 
L 267.279136 270.034475 
L 275.337164 269.994229 
L 275.337164 267.741291 
L 279.885588 267.739593 
L 279.885588 267.626236 
L 284.867731 267.624268 
L 284.867731 266.168062 
L 290.375264 266.158492 
L 290.375264 265.862102 
L 296.532468 265.839235 
L 296.532468 238.12731 
L 303.512903 238.105798 
L 303.512903 237.852629 
L 311.57093 237.797719 
L 311.57093 235.601313 
L 316.119355 235.570871 
L 316.119355 235.486319 
L 321.101497 235.430882 
L 321.101497 234.505831 
L 326.60903 234.412037 
L 326.60903 234.056565 
L 329.597229 234.033423 
L 329.597229 233.892564 
L 332.766234 233.857525 
L 332.766234 210.873445 
L 337.911429 210.769108 
L 337.911429 210.755678 
L 339.744857 210.754438 
L 339.744857 210.442739 
L 343.62187 210.412247 
L 343.62187 210.280275 
L 347.803247 210.237657 
L 347.803247 208.230313 
L 352.354208 208.180733 
L 352.354208 207.894443 
L 356.365286 207.78361 
L 356.365286 207.782554 
L 357.336351 207.777901 
L 357.336351 206.471254 
L 360.017649 206.445138 
L 360.017649 206.358729 
L 362.843883 206.322929 
L 362.843883 205.572356 
L 365.829545 205.520591 
L 365.829545 205.340336 
L 369 205.246269 
L 369 186.203 
L 372.373364 186.165334 
L 372.373364 186.009331 
L 375.978623 185.954015 
L 375.978623 185.384272 
L 379.855636 185.274156 
L 379.855636 185.079258 
L 381.902844 185.040755 
L 381.902844 184.961337 
L 384.037013 184.920234 
L 384.037013 182.393123 
L 386.261766 182.34762 
L 386.261766 182.270508 
L 388.587974 182.196031 
L 388.587974 181.848253 
L 391.01926 181.769013 
L 391.01926 181.566102 
L 393.570117 181.466908 
L 393.570117 179.75854 
L 395.566597 179.650439 
L 395.566597 179.631395 
L 396.251416 179.631395 
L 396.251416 179.424408 
L 397.642792 179.397909 
L 397.642792 179.294806 
L 399.077649 179.269461 
L 399.077649 178.279773 
L 400.54874 178.252437 
L 400.54874 178.118301 
L 402.063312 178.084183 
L 402.063312 177.731428 
L 403.624987 177.695861 
L 403.624987 177.493254 
L 405.233766 177.451695 
L 405.233766 160.601804 
L 407.744766 160.499658 
L 407.744766 160.479865 
L 408.60713 160.479865 
L 408.60713 160.161146 
L 410.378961 160.138588 
L 410.378961 160.032646 
L 412.21239 159.999135 
L 412.21239 159.243864 
L 414.114662 159.212086 
L 414.114662 159.03572 
L 416.089403 159.000305 
L 416.089403 158.625968 
L 418.13661 158.577648 
L 418.13661 158.376521 
L 420.270779 158.328907 
L 420.270779 155.298029 
L 422.495532 155.252675 
L 422.495532 155.051898 
L 424.82174 154.985477 
L 424.82174 154.420413 
L 427.253026 154.358267 
L 427.253026 153.999472 
L 429.803883 153.923693 
L 429.803883 151.903147 
L 432.485182 151.811779 
L 432.485182 151.456116 
L 435.311416 151.358588 
L 435.311416 150.140417 
L 438.297078 150.0301 
L 438.297078 149.54528 
L 439.858753 149.54528 
L 439.858753 149.40386 
L 441.467532 149.40386 
L 441.467532 133.80969 
L 444.840896 133.749838 
L 444.840896 133.403146 
L 448.446156 133.332627 
L 448.446156 132.462612 
L 452.323169 132.364676 
L 452.323169 131.981058 
L 456.504545 131.877222 
L 456.504545 128.712361 
L 461.055506 128.613728 
L 461.055506 128.144999 
L 463.486792 128.144999 
L 463.486792 128.000243 
L 466.037649 128.000243 
L 466.037649 126.2617 
L 468.718948 126.2617 
L 468.718948 126.125421 
L 471.545182 126.125421 
L 471.545182 125.328339 
L 474.530844 125.328339 
L 474.530844 125.159407 
L 477.701299 125.159407 
L 477.701299 109.723297 
L 484.679922 109.620122 
L 484.679922 109.097744 
L 492.738312 108.989466 
L 492.738312 106.495665 
L 497.289273 106.495665 
L 497.289273 106.373711 
L 502.271416 106.373711 
L 502.271416 105.519278 
L 507.778948 105.519278 
L 507.778948 105.33021 
L 513.935065 105.33021 
L 513.935065 90.690079 
L 520.913688 90.690079 
L 520.913688 90.563243 
L 528.972078 90.563243 
L 528.972078 89.248357 
L 538.505182 89.248357 
L 538.505182 89.059167 
L 550.168831 89.059167 
L 550.168831 77.269491 
L 565.205844 77.269491 
L 565.205844 76.906314 
L 586.402597 76.906314 
L 586.402597 69.667119 
L 622.636364 69.667119 
L 622.636364 67.05544 
L 622.636364 67.05544 
" style="fill:none;stroke:#0000ff;stroke-linecap:square;stroke-width:0.5;"/>
   </g>
   <g id="line2d_17">
    <path clip-path="url(#p07553b710d)" d="M 115.363636 369.36 
L 151.597403 369.36 
L 151.597403 336.906747 
L 187.831169 336.906747 
L 187.831169 318.602751 
L 224.064935 318.602751 
L 224.064935 298.529284 
L 239.103397 298.477203 
L 239.103397 298.113714 
L 248.633965 298.051741 
L 248.633965 297.182135 
L 254.141497 297.136902 
L 254.141497 296.948185 
L 260.298701 296.882759 
L 260.298701 270.22732 
L 267.279136 270.148955 
L 267.279136 269.850738 
L 275.337164 269.79882 
L 275.337164 267.592258 
L 279.885588 267.590014 
L 279.885588 267.473155 
L 284.867731 267.470368 
L 284.867731 265.952591 
L 290.375264 265.939563 
L 290.375264 265.62071 
L 296.532468 265.590643 
L 296.532468 238.072846 
L 303.512903 238.046644 
L 303.512903 237.800965 
L 311.57093 237.737947 
L 311.57093 235.539893 
L 316.119355 235.50829 
L 316.119355 235.410313 
L 321.101497 235.348389 
L 321.101497 234.440578 
L 326.60903 234.338368 
L 326.60903 233.979059 
L 329.597229 233.950594 
L 329.597229 233.805344 
L 332.766234 233.765807 
L 332.766234 210.853489 
L 337.911429 210.74458 
L 337.911429 210.729666 
L 339.744857 210.727787 
L 339.744857 210.424255 
L 343.62187 210.389371 
L 343.62187 210.255903 
L 347.803247 210.210296 
L 347.803247 208.279188 
L 352.354208 208.226814 
L 352.354208 207.931719 
L 355.412338 207.822179 
L 355.412338 207.818788 
L 357.336351 207.805682 
L 357.336351 206.50436 
L 360.017649 206.476607 
L 360.017649 206.38697 
L 362.843883 206.350828 
L 362.843883 205.611722 
L 365.829545 205.555831 
L 365.829545 205.374621 
L 369 205.27567 
L 369 186.160331 
L 372.373364 186.123118 
L 372.373364 185.966109 
L 375.978623 185.911207 
L 375.978623 185.345221 
L 379.855636 185.235053 
L 379.855636 185.037879 
L 381.902844 184.99805 
L 381.902844 184.918044 
L 384.037013 184.877029 
L 384.037013 182.39013 
L 386.261766 182.34456 
L 386.261766 182.265226 
L 388.587974 182.191042 
L 388.587974 181.819044 
L 391.01926 181.740826 
L 391.01926 181.541486 
L 393.570117 181.444099 
L 393.570117 179.749271 
L 395.566597 179.641172 
L 395.566597 179.622699 
L 396.251416 179.622699 
L 396.251416 179.415929 
L 397.642792 179.390501 
L 397.642792 179.288127 
L 399.077649 179.263137 
L 399.077649 178.26831 
L 400.54874 178.242045 
L 400.54874 178.112777 
L 402.063312 178.080478 
L 402.063312 177.731594 
L 403.624987 177.69709 
L 403.624987 177.496165 
L 405.233766 177.457584 
L 405.233766 160.488671 
L 407.744766 160.392129 
L 407.744766 160.372588 
L 408.60713 160.372588 
L 408.60713 160.065947 
L 410.378961 160.044313 
L 410.378961 159.939616 
L 412.21239 159.90716 
L 412.21239 159.15821 
L 414.114662 159.127906 
L 414.114662 158.952938 
L 416.089403 158.918429 
L 416.089403 158.549611 
L 418.13661 158.501501 
L 418.13661 158.300381 
L 420.270779 158.254098 
L 420.270779 155.254567 
L 422.495532 155.210186 
L 422.495532 155.012491 
L 424.82174 154.947254 
L 424.82174 154.370779 
L 427.253026 154.309703 
L 427.253026 153.957895 
L 429.803883 153.882806 
L 429.803883 151.867926 
L 432.485182 151.778397 
L 432.485182 151.424189 
L 435.311416 151.329274 
L 435.311416 150.103527 
L 438.297078 149.996248 
L 438.297078 149.518576 
L 439.858753 149.518576 
L 439.858753 149.377367 
L 441.467532 149.377367 
L 441.467532 133.726025 
L 444.840896 133.668486 
L 444.840896 133.32777 
L 448.446156 133.258985 
L 448.446156 132.396481 
L 452.323169 132.30051 
L 452.323169 131.922594 
L 456.504545 131.820103 
L 456.504545 128.670959 
L 461.055506 128.574317 
L 461.055506 128.105264 
L 463.486792 128.105264 
L 463.486792 127.962841 
L 466.037649 127.962841 
L 466.037649 126.214967 
L 468.718948 126.214967 
L 468.718948 126.08019 
L 471.545182 126.08019 
L 471.545182 125.277698 
L 474.530844 125.277698 
L 474.530844 125.111366 
L 477.701299 125.111366 
L 477.701299 109.688771 
L 484.679922 109.586277 
L 484.679922 109.073195 
L 492.738312 108.966702 
L 492.738312 106.471671 
L 497.289273 106.471671 
L 497.289273 106.350308 
L 502.271416 106.350308 
L 502.271416 105.481309 
L 507.778948 105.481309 
L 507.778948 105.291451 
L 513.935065 105.291451 
L 513.935065 90.681895 
L 520.913688 90.681895 
L 520.913688 90.558392 
L 528.972078 90.558392 
L 528.972078 89.237863 
L 538.505182 89.237863 
L 538.505182 89.043283 
L 550.168831 89.043283 
L 550.168831 77.278769 
L 565.205844 77.278769 
L 565.205844 76.914115 
L 586.402597 76.914115 
L 586.402597 69.694952 
L 622.636364 69.694952 
L 622.636364 67.097729 
L 622.636364 67.097729 
" style="fill:none;stroke:#0000ff;stroke-linecap:square;stroke-width:0.5;"/>
   </g>
   <g id="line2d_18">
    <path clip-path="url(#p07553b710d)" d="M 115.363636 368.554579 
L 151.597403 368.554579 
L 151.597403 337.301535 
L 187.831169 337.301535 
L 187.831169 318.394678 
L 224.064935 318.394678 
L 224.064935 299.122698 
L 239.103397 299.090696 
L 239.103397 298.467456 
L 248.633965 298.413938 
L 248.633965 297.50514 
L 254.141497 297.486698 
L 254.141497 297.224458 
L 260.298701 297.121851 
L 260.298701 269.702715 
L 267.279136 269.64587 
L 267.279136 269.362511 
L 275.337164 269.306136 
L 275.337164 266.978351 
L 282.317236 266.87032 
L 282.317236 266.864397 
L 284.867731 266.864397 
L 284.867731 265.423456 
L 290.375264 265.418993 
L 290.375264 265.080885 
L 296.532468 265.068972 
L 296.532468 237.984876 
L 303.512903 237.961144 
L 303.512903 237.734558 
L 311.57093 237.686825 
L 311.57093 235.316905 
L 316.119355 235.295887 
L 316.119355 235.204151 
L 321.101497 235.14441 
L 321.101497 234.28048 
L 326.60903 234.206729 
L 326.60903 233.785154 
L 329.597229 233.760359 
L 329.597229 233.609031 
L 332.766234 233.586145 
L 332.766234 210.940492 
L 337.911429 210.837192 
L 337.911429 210.824977 
L 339.744857 210.823677 
L 339.744857 210.511894 
L 343.62187 210.4877 
L 343.62187 210.347321 
L 347.803247 210.309859 
L 347.803247 208.176947 
L 352.354208 208.134676 
L 352.354208 207.853098 
L 356.042805 207.742031 
L 356.042805 207.735346 
L 357.336351 207.731497 
L 357.336351 206.410268 
L 360.709714 206.301885 
L 360.709714 206.296345 
L 362.843883 206.272606 
L 362.843883 205.467463 
L 365.829545 205.419878 
L 365.829545 205.240526 
L 369 205.159922 
L 369 186.315847 
L 372.373364 186.281781 
L 372.373364 186.129434 
L 375.978623 186.079785 
L 375.978623 185.518305 
L 379.855636 185.414187 
L 379.855636 185.211852 
L 382.428234 185.103386 
L 382.428234 185.09742 
L 384.037013 185.065243 
L 384.037013 182.364149 
L 386.261766 182.322382 
L 386.261766 182.240452 
L 388.587974 182.168788 
L 388.587974 181.816332 
L 391.01926 181.74055 
L 391.01926 181.52482 
L 393.570117 181.427611 
L 393.570117 179.697209 
L 395.566597 179.594165 
L 395.566597 179.576843 
L 396.251416 179.576843 
L 396.251416 179.371232 
L 397.642792 179.349377 
L 397.642792 179.245473 
L 399.077649 179.22236 
L 399.077649 178.18345 
L 400.54874 178.158644 
L 400.54874 178.026124 
L 402.063312 177.995588 
L 402.063312 177.629293 
L 403.624987 177.596866 
L 403.624987 177.393542 
L 405.233766 177.354529 
L 405.233766 160.629976 
L 407.744766 160.527908 
L 407.744766 160.507907 
L 408.60713 160.507907 
L 408.60713 160.185311 
L 410.378961 160.163834 
L 410.378961 160.057345 
L 412.21239 160.02751 
L 412.21239 159.274867 
L 414.114662 159.245417 
L 414.114662 159.067739 
L 416.089403 159.033506 
L 416.089403 158.651377 
L 418.13661 158.603954 
L 418.13661 158.400793 
L 420.270779 158.353081 
L 420.270779 155.119957 
L 422.495532 155.074321 
L 422.495532 154.866941 
L 424.82174 154.800495 
L 424.82174 154.227173 
L 427.253026 154.161396 
L 427.253026 153.795676 
L 429.803883 153.717601 
L 429.803883 151.717305 
L 432.485182 151.628968 
L 432.485182 151.276406 
L 435.311416 151.181801 
L 435.311416 149.918339 
L 438.297078 149.811309 
L 438.297078 149.321703 
L 439.858753 149.321703 
L 439.858753 149.182993 
L 441.467532 149.182993 
L 441.467532 133.696777 
L 444.840896 133.635931 
L 444.840896 133.292869 
L 448.446156 133.223117 
L 448.446156 132.36785 
L 452.323169 132.271593 
L 452.323169 131.885348 
L 456.504545 131.78108 
L 456.504545 128.515372 
L 461.055506 128.4173 
L 461.055506 127.954941 
L 463.486792 127.954941 
L 463.486792 127.811271 
L 466.037649 127.811271 
L 466.037649 126.092385 
L 468.718948 126.092385 
L 468.718948 125.958044 
L 471.545182 125.958044 
L 471.545182 125.146694 
L 474.530844 125.146694 
L 474.530844 124.976753 
L 477.701299 124.976753 
L 477.701299 109.733115 
L 484.679922 109.631267 
L 484.679922 109.130177 
L 488.556935 109.130177 
L 488.556935 109.018812 
L 492.738312 109.018812 
L 492.738312 106.463345 
L 497.289273 106.463345 
L 497.289273 106.34049 
L 502.271416 106.34049 
L 502.271416 105.475543 
L 507.778948 105.475543 
L 507.778948 105.279313 
L 513.935065 105.279313 
L 513.935065 90.804603 
L 520.913688 90.804603 
L 520.913688 90.681761 
L 528.972078 90.681761 
L 528.972078 89.319814 
L 538.505182 89.319814 
L 538.505182 89.119728 
L 550.168831 89.119728 
L 550.168831 77.359532 
L 565.205844 77.359532 
L 565.205844 76.973828 
L 586.402597 76.973828 
L 586.402597 69.644311 
L 622.636364 69.644311 
L 622.636364 66.993955 
L 622.636364 66.993955 
" style="fill:none;stroke:#0000ff;stroke-linecap:square;stroke-width:0.5;"/>
   </g>
   <g id="line2d_19">
    <path clip-path="url(#p07553b710d)" d="M 115.363636 369.36 
L 151.597403 369.36 
L 151.597403 336.906747 
L 187.831169 336.906747 
L 187.831169 318.359398 
L 224.064935 318.359398 
L 224.064935 298.63227 
L 239.103397 298.619159 
L 239.103397 298.281658 
L 248.633965 298.252753 
L 248.633965 297.462138 
L 254.141497 297.423831 
L 254.141497 297.23354 
L 260.298701 297.14594 
L 260.298701 270.300799 
L 267.279136 270.19411 
L 267.279136 269.91017 
L 275.337164 269.883944 
L 275.337164 267.779244 
L 279.885588 267.778676 
L 279.885588 267.610222 
L 284.867731 267.60966 
L 284.867731 266.255983 
L 290.375264 266.253383 
L 290.375264 265.945948 
L 296.532468 265.920421 
L 296.532468 238.031912 
L 303.512903 238.005041 
L 303.512903 237.757472 
L 311.57093 237.70824 
L 311.57093 235.581043 
L 316.119355 235.548233 
L 316.119355 235.446427 
L 321.101497 235.390666 
L 321.101497 234.528791 
L 326.60903 234.444495 
L 326.60903 234.088916 
L 329.597229 234.066564 
L 329.597229 233.920315 
L 332.766234 233.880272 
L 332.766234 210.84599 
L 337.911429 210.73517 
L 337.911429 210.723489 
L 339.744857 210.72234 
L 339.744857 210.428937 
L 343.62187 210.39502 
L 343.62187 210.257506 
L 347.803247 210.220804 
L 347.803247 208.161595 
L 352.354208 208.111226 
L 352.354208 207.813956 
L 357.336351 207.704764 
L 357.336351 206.463354 
L 360.017649 206.438514 
L 360.017649 206.348674 
L 362.843883 206.318457 
L 362.843883 205.553847 
L 365.829545 205.506832 
L 365.829545 205.334627 
L 369 205.235156 
L 369 186.135277 
L 372.373364 186.099615 
L 372.373364 185.932237 
L 375.978623 185.881247 
L 375.978623 185.33915 
L 379.855636 185.232974 
L 379.855636 185.037003 
L 382.428234 184.929678 
L 382.428234 184.922245 
L 384.037013 184.891559 
L 384.037013 182.356629 
L 386.261766 182.312593 
L 386.261766 182.234292 
L 388.587974 182.15864 
L 388.587974 181.804152 
L 391.01926 181.731149 
L 391.01926 181.53712 
L 393.570117 181.439071 
L 393.570117 179.79683 
L 395.566597 179.690086 
L 395.566597 179.672895 
L 396.251416 179.672895 
L 396.251416 179.46598 
L 397.642792 179.439996 
L 397.642792 179.342927 
L 399.077649 179.319137 
L 399.077649 178.299017 
L 400.54874 178.272821 
L 400.54874 178.145424 
L 402.063312 178.111147 
L 402.063312 177.76722 
L 403.624987 177.732171 
L 403.624987 177.52737 
L 405.233766 177.48834 
L 405.233766 160.516348 
L 407.744766 160.416235 
L 407.744766 160.396752 
L 408.60713 160.396752 
L 408.60713 160.066501 
L 410.378961 160.044342 
L 410.378961 159.942591 
L 412.21239 159.908103 
L 412.21239 159.170504 
L 414.114662 159.139921 
L 414.114662 158.964685 
L 416.089403 158.928886 
L 416.089403 158.564146 
L 418.13661 158.515253 
L 418.13661 158.327107 
L 420.270779 158.281132 
L 420.270779 155.239334 
L 422.495532 155.196537 
L 422.495532 155.00101 
L 424.82174 154.936752 
L 424.82174 154.361555 
L 427.253026 154.302309 
L 427.253026 153.956253 
L 429.803883 153.881411 
L 429.803883 151.92321 
L 432.485182 151.833624 
L 432.485182 151.480122 
L 435.311416 151.386426 
L 435.311416 150.150491 
L 438.297078 150.044922 
L 438.297078 149.569236 
L 439.858753 149.569236 
L 439.858753 149.430018 
L 441.467532 149.430018 
L 441.467532 133.713458 
L 444.840896 133.655267 
L 444.840896 133.298526 
L 448.446156 133.23145 
L 448.446156 132.379518 
L 452.323169 132.28265 
L 452.323169 131.917333 
L 456.504545 131.819241 
L 456.504545 128.688117 
L 461.055506 128.592686 
L 461.055506 128.119166 
L 463.486792 128.119166 
L 463.486792 127.975489 
L 466.037649 127.975489 
L 466.037649 126.291097 
L 468.718948 126.291097 
L 468.718948 126.15698 
L 471.545182 126.15698 
L 471.545182 125.356879 
L 474.530844 125.356879 
L 474.530844 125.190366 
L 477.701299 125.190366 
L 477.701299 109.649305 
L 484.679922 109.544181 
L 484.679922 109.033146 
L 492.738312 108.929268 
L 492.738312 106.475609 
L 497.289273 106.475609 
L 497.289273 106.351839 
L 502.271416 106.351839 
L 502.271416 105.521205 
L 507.778948 105.521205 
L 507.778948 105.333884 
L 513.935065 105.333884 
L 513.935065 90.689042 
L 520.913688 90.689042 
L 520.913688 90.563948 
L 528.972078 90.563948 
L 528.972078 89.241261 
L 538.505182 89.241261 
L 538.505182 89.056449 
L 550.168831 89.056449 
L 550.168831 77.317067 
L 565.205844 77.317067 
L 565.205844 76.936513 
L 586.402597 76.936513 
L 586.402597 69.698178 
L 622.636364 69.698178 
L 622.636364 67.042949 
L 622.636364 67.042949 
" style="fill:none;stroke:#0000ff;stroke-linecap:square;stroke-width:0.5;"/>
   </g>
   <g id="line2d_20">
    <path clip-path="url(#p07553b710d)" d="M 115.363636 369.36 
L 151.597403 369.36 
L 151.597403 336.906747 
L 187.831169 336.906747 
L 187.831169 318.602751 
L 224.064935 318.602751 
L 224.064935 298.592966 
L 239.103397 298.532544 
L 239.103397 298.13442 
L 248.633965 298.093032 
L 248.633965 297.23354 
L 254.141497 297.192706 
L 254.141497 297.019839 
L 260.298701 296.948185 
L 260.298701 270.346347 
L 267.279136 270.270064 
L 267.279136 269.983619 
L 275.337164 269.936756 
L 275.337164 267.690721 
L 279.885588 267.688464 
L 279.885588 267.567028 
L 284.867731 267.564227 
L 284.867731 266.11227 
L 290.375264 266.102215 
L 290.375264 265.773847 
L 296.532468 265.750842 
L 296.532468 238.150689 
L 303.512903 238.128518 
L 303.512903 237.873212 
L 311.57093 237.816897 
L 311.57093 235.610046 
L 316.119355 235.581497 
L 316.119355 235.498477 
L 321.101497 235.443497 
L 321.101497 234.512284 
L 326.60903 234.419944 
L 326.60903 234.058481 
L 329.597229 234.034588 
L 329.597229 233.893637 
L 332.766234 233.858267 
L 332.766234 210.929199 
L 337.911429 210.822688 
L 337.911429 210.809072 
L 339.744857 210.807474 
L 339.744857 210.491679 
L 343.62187 210.460645 
L 343.62187 210.329617 
L 347.803247 210.28606 
L 347.803247 208.282438 
L 352.354208 208.232509 
L 352.354208 207.943816 
L 356.042805 207.83645 
L 356.042805 207.829543 
L 357.336351 207.824136 
L 357.336351 206.529415 
L 360.017649 206.5027 
L 360.017649 206.411452 
L 362.843883 206.375725 
L 362.843883 205.626647 
L 365.829545 205.5737 
L 365.829545 205.387168 
L 369 205.294213 
L 369 186.259502 
L 372.373364 186.222268 
L 372.373364 186.064134 
L 375.978623 186.009591 
L 375.978623 185.434651 
L 379.855636 185.325866 
L 379.855636 185.128829 
L 381.902844 185.089498 
L 381.902844 185.008155 
L 384.037013 184.967879 
L 384.037013 182.423675 
L 386.261766 182.378673 
L 386.261766 182.299009 
L 388.587974 182.225965 
L 388.587974 181.869805 
L 391.01926 181.790176 
L 391.01926 181.586084 
L 393.570117 181.487048 
L 393.570117 179.800519 
L 395.566597 179.692098 
L 395.566597 179.673511 
L 396.251416 179.673511 
L 396.251416 179.465835 
L 397.642792 179.439541 
L 397.642792 179.335516 
L 399.077649 179.309599 
L 399.077649 178.30328 
L 400.54874 178.275993 
L 400.54874 178.143576 
L 402.063312 178.109942 
L 402.063312 177.752187 
L 403.624987 177.716733 
L 403.624987 177.51263 
L 405.233766 177.471413 
L 405.233766 160.615012 
L 407.744766 160.513205 
L 407.744766 160.493227 
L 408.60713 160.493227 
L 408.60713 160.17401 
L 410.378961 160.151543 
L 410.378961 160.044612 
L 412.21239 160.011023 
L 412.21239 159.252391 
L 414.114662 159.220513 
L 414.114662 159.043826 
L 416.089403 159.008114 
L 416.089403 158.631583 
L 418.13661 158.582389 
L 418.13661 158.377032 
L 420.270779 158.32874 
L 420.270779 155.281207 
L 422.495532 155.235338 
L 422.495532 155.033307 
L 424.82174 154.966673 
L 424.82174 154.396298 
L 427.253026 154.333321 
L 427.253026 153.97437 
L 429.803883 153.897774 
L 429.803883 151.899165 
L 432.485182 151.806819 
L 432.485182 151.450581 
L 435.311416 151.352619 
L 435.311416 150.120134 
L 438.297078 150.010295 
L 438.297078 149.523702 
L 439.858753 149.523702 
L 439.858753 149.380937 
L 441.467532 149.380937 
L 441.467532 133.823126 
L 444.840896 133.76288 
L 444.840896 133.414555 
L 448.446156 133.343608 
L 448.446156 132.473263 
L 452.323169 132.374729 
L 452.323169 131.988916 
L 456.504545 131.883214 
L 456.504545 128.714044 
L 461.055506 128.615067 
L 461.055506 128.143292 
L 463.486792 128.143292 
L 463.486792 127.997724 
L 466.037649 127.997724 
L 466.037649 126.262204 
L 468.718948 126.262204 
L 468.718948 126.125357 
L 471.545182 126.125357 
L 471.545182 125.317894 
L 474.530844 125.317894 
L 474.530844 125.147552 
L 477.701299 125.147552 
L 477.701299 109.737925 
L 484.679922 109.633723 
L 484.679922 109.112371 
L 492.738312 109.00332 
L 492.738312 106.506454 
L 497.289273 106.506454 
L 497.289273 106.382819 
L 502.271416 106.382819 
L 502.271416 105.51876 
L 507.778948 105.51876 
L 507.778948 105.326514 
L 513.935065 105.326514 
L 513.935065 90.684332 
L 520.913688 90.684332 
L 520.913688 90.557688 
L 528.972078 90.557688 
L 528.972078 89.241838 
L 538.505182 89.241838 
L 538.505182 89.047615 
L 550.168831 89.047615 
L 550.168831 77.253956 
L 565.205844 77.253956 
L 565.205844 76.89048 
L 586.402597 76.89048 
L 586.402597 69.664715 
L 622.636364 69.664715 
L 622.636364 67.07137 
L 622.636364 67.07137 
" style="fill:none;stroke:#0000ff;stroke-linecap:square;stroke-width:0.5;"/>
   </g>
   <g id="line2d_21">
    <path clip-path="url(#p07553b710d)" d="M 115.363636 369.36 
L 151.597403 369.36 
L 151.597403 336.906747 
L 187.831169 336.906747 
L 187.831169 319.099801 
L 224.064935 319.099801 
L 224.064935 298.368657 
L 239.103397 298.365428 
L 239.103397 298.004218 
L 248.633965 297.971028 
L 248.633965 297.167045 
L 254.141497 297.148953 
L 254.141497 296.970546 
L 257.129696 296.970546 
L 257.129696 296.850136 
L 260.298701 296.850136 
L 260.298701 270.186956 
L 267.279136 270.105209 
L 267.279136 269.851695 
L 275.337164 269.798502 
L 275.337164 267.614434 
L 279.885588 267.614434 
L 279.885588 267.462569 
L 284.867731 267.462291 
L 284.867731 266.11227 
L 290.375264 266.10737 
L 290.375264 265.732157 
L 296.532468 265.712483 
L 296.532468 238.068659 
L 303.512903 238.050512 
L 303.512903 237.818548 
L 311.57093 237.766368 
L 311.57093 235.563836 
L 316.119355 235.534682 
L 316.119355 235.439622 
L 321.101497 235.387431 
L 321.101497 234.522888 
L 326.60903 234.428875 
L 326.60903 234.072941 
L 329.597229 234.049028 
L 329.597229 233.904824 
L 332.766234 233.874212 
L 332.766234 211.049882 
L 337.911429 210.942852 
L 337.911429 210.928048 
L 339.744857 210.92693 
L 339.744857 210.632682 
L 343.62187 210.602418 
L 343.62187 210.459154 
L 347.803247 210.416686 
L 347.803247 208.350049 
L 352.354208 208.295568 
L 352.354208 208.014348 
L 355.412338 207.904707 
L 355.412338 207.902044 
L 357.336351 207.889083 
L 357.336351 206.668988 
L 360.017649 206.643891 
L 360.017649 206.553861 
L 362.843883 206.521419 
L 362.843883 205.745369 
L 365.829545 205.696354 
L 365.829545 205.513583 
L 369 205.420646 
L 369 186.354644 
L 372.373364 186.316048 
L 372.373364 186.156913 
L 375.978623 186.100797 
L 375.978623 185.55515 
L 379.855636 185.447361 
L 379.855636 185.235887 
L 382.96087 185.127466 
L 382.96087 185.099661 
L 384.037013 185.092879 
L 384.037013 182.524249 
L 386.261766 182.481458 
L 386.261766 182.403797 
L 388.587974 182.328445 
L 388.587974 181.972192 
L 391.01926 181.895216 
L 391.01926 181.695906 
L 393.570117 181.599014 
L 393.570117 179.94703 
L 395.566597 179.842207 
L 395.566597 179.823017 
L 396.251416 179.823017 
L 396.251416 179.614086 
L 397.642792 179.590397 
L 397.642792 179.493947 
L 399.077649 179.469468 
L 399.077649 178.430202 
L 400.54874 178.402927 
L 400.54874 178.275388 
L 402.063312 178.2418 
L 402.063312 177.885649 
L 403.624987 177.851113 
L 403.624987 177.650341 
L 405.233766 177.608637 
L 405.233766 160.546388 
L 407.744766 160.447693 
L 407.744766 160.427245 
L 408.60713 160.427245 
L 408.60713 160.11188 
L 410.378961 160.088851 
L 410.378961 159.986314 
L 412.21239 159.954585 
L 412.21239 159.223032 
L 414.114662 159.193236 
L 414.114662 159.022491 
L 416.089403 158.987215 
L 416.089403 158.620967 
L 418.13661 158.573359 
L 418.13661 158.389192 
L 420.270779 158.3423 
L 420.270779 155.275593 
L 422.495532 155.231584 
L 422.495532 155.034541 
L 424.82174 154.966499 
L 424.82174 154.400835 
L 427.253026 154.337246 
L 427.253026 153.992734 
L 429.803883 153.917054 
L 429.803883 151.964254 
L 432.485182 151.873928 
L 432.485182 151.523224 
L 435.311416 151.42884 
L 435.311416 150.189327 
L 438.297078 150.078697 
L 438.297078 149.593136 
L 439.858753 149.593136 
L 439.858753 149.449172 
L 441.467532 149.449172 
L 441.467532 133.780676 
L 444.840896 133.721184 
L 444.840896 133.371198 
L 448.446156 133.299866 
L 448.446156 132.462269 
L 452.323169 132.366396 
L 452.323169 131.98473 
L 456.504545 131.884609 
L 456.504545 128.715174 
L 461.055506 128.617279 
L 461.055506 128.145273 
L 463.486792 128.145273 
L 463.486792 128.000041 
L 466.037649 128.000041 
L 466.037649 126.306599 
L 468.718948 126.306599 
L 468.718948 126.170902 
L 471.545182 126.170902 
L 471.545182 125.352137 
L 474.530844 125.352137 
L 474.530844 125.179325 
L 477.701299 125.179325 
L 477.701299 109.682818 
L 484.679922 109.578552 
L 484.679922 109.080185 
L 492.738312 108.97127 
L 492.738312 106.475853 
L 497.289273 106.475853 
L 497.289273 106.351509 
L 502.271416 106.351509 
L 502.271416 105.493271 
L 507.778948 105.493271 
L 507.778948 105.295909 
L 513.935065 105.295909 
L 513.935065 90.648266 
L 520.913688 90.648266 
L 520.913688 90.527733 
L 528.972078 90.527733 
L 528.972078 89.18683 
L 538.505182 89.18683 
L 538.505182 88.987733 
L 550.168831 88.987733 
L 550.168831 77.263759 
L 565.205844 77.263759 
L 565.205844 76.87989 
L 586.402597 76.87989 
L 586.402597 69.699719 
L 622.636364 69.699719 
L 622.636364 67.103117 
L 622.636364 67.103117 
" style="fill:none;stroke:#0000ff;stroke-linecap:square;stroke-width:0.5;"/>
   </g>
   <g id="line2d_22">
    <path clip-path="url(#p07553b710d)" d="M 115.363636 368.2941 
L 151.597403 368.2941 
L 151.597403 337.435126 
L 187.831169 337.435126 
L 187.831169 318.208996 
L 224.064935 318.208996 
L 224.064935 299.32447 
L 239.103397 299.32447 
L 239.103397 298.929884 
L 248.633965 298.84007 
L 248.633965 297.776317 
L 254.141497 297.751349 
L 254.141497 297.462138 
L 260.298701 297.387135 
L 260.298701 269.503933 
L 267.279136 269.436507 
L 267.279136 269.168438 
L 275.337164 269.134105 
L 275.337164 266.955609 
L 279.885588 266.955609 
L 279.885588 266.818968 
L 284.867731 266.809575 
L 284.867731 265.4014 
L 290.375264 265.400905 
L 290.375264 265.024069 
L 296.532468 265.00614 
L 296.532468 237.862504 
L 303.512903 237.832017 
L 303.512903 237.618653 
L 311.57093 237.570978 
L 311.57093 235.335843 
L 316.119355 235.307913 
L 316.119355 235.184333 
L 321.101497 235.123996 
L 321.101497 234.249545 
L 326.60903 234.169927 
L 326.60903 233.769249 
L 329.597229 233.753439 
L 329.597229 233.607407 
L 332.766234 233.574633 
L 332.766234 210.882673 
L 337.911429 210.777617 
L 337.911429 210.768499 
L 339.744857 210.76769 
L 339.744857 210.445523 
L 343.62187 210.416426 
L 343.62187 210.278583 
L 347.803247 210.247202 
L 347.803247 208.164412 
L 352.354208 208.115559 
L 352.354208 207.823846 
L 357.336351 207.715812 
L 357.336351 206.386659 
L 360.017649 206.364738 
L 360.017649 206.269707 
L 362.843883 206.237588 
L 362.843883 205.431369 
L 365.829545 205.38809 
L 365.829545 205.21993 
L 369 205.133262 
L 369 186.263044 
L 372.373364 186.229887 
L 372.373364 186.075004 
L 375.978623 186.026774 
L 375.978623 185.474374 
L 379.855636 185.373298 
L 379.855636 185.174822 
L 382.96087 185.067402 
L 382.96087 185.041191 
L 384.037013 185.034504 
L 384.037013 182.434039 
L 386.261766 182.391314 
L 386.261766 182.30865 
L 388.587974 182.237619 
L 388.587974 181.860947 
L 391.01926 181.787374 
L 391.01926 181.590982 
L 393.570117 181.494081 
L 393.570117 179.701042 
L 395.566597 179.599592 
L 395.566597 179.581125 
L 396.251416 179.581125 
L 396.251416 179.36779 
L 397.642792 179.346449 
L 397.642792 179.247216 
L 399.077649 179.224636 
L 399.077649 178.211456 
L 400.54874 178.185743 
L 400.54874 178.06242 
L 402.063312 178.03188 
L 402.063312 177.678389 
L 403.624987 177.647107 
L 403.624987 177.444006 
L 405.233766 177.404951 
L 405.233766 160.57746 
L 407.744766 160.478312 
L 407.744766 160.4595 
L 408.60713 160.4595 
L 408.60713 160.139188 
L 410.378961 160.116898 
L 410.378961 160.015193 
L 412.21239 159.983845 
L 412.21239 159.235764 
L 414.114662 159.2061 
L 414.114662 159.035042 
L 416.089403 158.998595 
L 416.089403 158.630142 
L 418.13661 158.583491 
L 418.13661 158.396518 
L 420.270779 158.349343 
L 420.270779 155.216736 
L 422.495532 155.170777 
L 422.495532 154.966948 
L 424.82174 154.901499 
L 424.82174 154.300444 
L 427.253026 154.236682 
L 427.253026 153.895229 
L 429.803883 153.81717 
L 429.803883 151.740161 
L 432.485182 151.651785 
L 432.485182 151.300908 
L 435.311416 151.206623 
L 435.311416 149.964254 
L 438.297078 149.860673 
L 438.297078 149.380287 
L 439.858753 149.380287 
L 439.858753 149.241018 
L 441.467532 149.241018 
L 441.467532 133.594857 
L 444.840896 133.535829 
L 444.840896 133.200594 
L 448.446156 133.132575 
L 448.446156 132.294557 
L 452.323169 132.200554 
L 452.323169 131.83156 
L 456.504545 131.734971 
L 456.504545 128.537524 
L 461.055506 128.442517 
L 461.055506 127.97262 
L 463.486792 127.97262 
L 463.486792 127.832562 
L 466.037649 127.832562 
L 466.037649 126.107072 
L 468.718948 126.107072 
L 468.718948 125.974909 
L 471.545182 125.974909 
L 471.545182 125.174833 
L 474.530844 125.174833 
L 474.530844 125.009366 
L 477.701299 125.009366 
L 477.701299 109.659804 
L 484.679922 109.560349 
L 484.679922 109.07048 
L 492.738312 108.964894 
L 492.738312 106.453817 
L 497.289273 106.453817 
L 497.289273 106.33138 
L 502.271416 106.33138 
L 502.271416 105.481437 
L 507.778948 105.481437 
L 507.778948 105.287329 
L 513.935065 105.287329 
L 513.935065 90.814105 
L 520.913688 90.814105 
L 520.913688 90.693341 
L 528.972078 90.693341 
L 528.972078 89.335791 
L 538.505182 89.335791 
L 538.505182 89.139396 
L 550.168831 89.139396 
L 550.168831 77.403555 
L 565.205844 77.403555 
L 565.205844 77.006125 
L 586.402597 77.006125 
L 586.402597 69.651165 
L 622.636364 69.651165 
L 622.636364 66.96 
L 622.636364 66.96 
" style="fill:none;stroke:#0000ff;stroke-linecap:square;stroke-width:0.5;"/>
   </g>
   <g id="line2d_23">
    <path clip-path="url(#p07553b710d)" d="M 115.363636 369.36 
L 151.597403 369.36 
L 151.597403 336.906747 
L 187.831169 336.906747 
L 187.831169 319.385693 
L 224.064935 319.385693 
L 224.064935 298.31061 
L 239.103397 298.28648 
L 239.103397 297.832624 
L 248.633965 297.785689 
L 248.633965 296.99891 
L 254.141497 296.983976 
L 254.141497 296.73496 
L 257.129696 296.73496 
L 257.129696 296.600075 
L 260.298701 296.600075 
L 260.298701 270.156418 
L 267.279136 270.071583 
L 267.279136 269.844678 
L 275.337164 269.78801 
L 275.337164 267.461734 
L 279.885588 267.461734 
L 279.885588 267.303724 
L 284.867731 267.303172 
L 284.867731 265.925523 
L 290.375264 265.91583 
L 290.375264 265.471879 
L 296.532468 265.453984 
L 296.532468 238.129095 
L 303.512903 238.10863 
L 303.512903 237.879061 
L 311.57093 237.821179 
L 311.57093 235.565969 
L 316.119355 235.537944 
L 316.119355 235.445345 
L 321.101497 235.392508 
L 321.101497 234.511558 
L 326.60903 234.420879 
L 326.60903 234.006739 
L 329.597229 233.985363 
L 329.597229 233.843735 
L 332.766234 233.817584 
L 332.766234 211.183076 
L 337.911429 211.077432 
L 337.911429 211.062582 
L 339.744857 211.061557 
L 339.744857 210.77016 
L 343.62187 210.740323 
L 343.62187 210.59407 
L 347.803247 210.55202 
L 347.803247 208.412524 
L 352.354208 208.357067 
L 352.354208 208.077265 
L 354.785494 208.067573 
L 354.785494 207.965513 
L 357.336351 207.950674 
L 357.336351 206.722458 
L 360.017649 206.697504 
L 360.017649 206.602978 
L 362.843883 206.571658 
L 362.843883 205.765631 
L 365.829545 205.71951 
L 365.829545 205.527923 
L 369 205.440987 
L 369 186.517675 
L 372.373364 186.480506 
L 372.373364 186.316629 
L 375.978623 186.261173 
L 375.978623 185.710534 
L 379.855636 185.599941 
L 379.855636 185.378838 
L 382.428234 185.273207 
L 382.428234 185.266968 
L 384.037013 185.232603 
L 384.037013 182.589139 
L 386.261766 182.543489 
L 386.261766 182.461946 
L 388.587974 182.387473 
L 388.587974 182.020461 
L 391.01926 181.943727 
L 391.01926 181.734573 
L 393.570117 181.638347 
L 393.570117 179.996226 
L 395.566597 179.891078 
L 395.566597 179.872375 
L 396.251416 179.872375 
L 396.251416 179.657191 
L 397.642792 179.633063 
L 397.642792 179.534473 
L 399.077649 179.510093 
L 399.077649 178.442985 
L 400.54874 178.415737 
L 400.54874 178.287539 
L 402.063312 178.253798 
L 402.063312 177.884996 
L 403.624987 177.850295 
L 403.624987 177.640342 
L 405.233766 177.598733 
L 405.233766 160.637735 
L 407.744766 160.535494 
L 407.744766 160.515259 
L 408.60713 160.515259 
L 408.60713 160.191357 
L 410.378961 160.167209 
L 410.378961 160.061389 
L 412.21239 160.028259 
L 412.21239 159.293071 
L 414.114662 159.263098 
L 414.114662 159.08401 
L 416.089403 159.047157 
L 416.089403 158.668877 
L 418.13661 158.619815 
L 418.13661 158.430537 
L 420.270779 158.382568 
L 420.270779 155.239744 
L 422.495532 155.193965 
L 422.495532 154.991388 
L 424.82174 154.921797 
L 424.82174 154.343394 
L 427.253026 154.278194 
L 427.253026 153.926635 
L 429.803883 153.849343 
L 429.803883 151.905675 
L 432.485182 151.814154 
L 432.485182 151.460894 
L 435.311416 151.365544 
L 435.311416 150.097918 
L 436.782506 150.097918 
L 436.782506 149.986596 
L 438.297078 149.986596 
L 438.297078 149.492457 
L 439.858753 149.492457 
L 439.858753 149.34507 
L 441.467532 149.34507 
L 441.467532 133.855433 
L 444.840896 133.793451 
L 444.840896 133.439024 
L 448.446156 133.366035 
L 448.446156 132.530327 
L 452.323169 132.431662 
L 452.323169 132.042158 
L 456.504545 131.939948 
L 456.504545 128.698426 
L 461.055506 128.598873 
L 461.055506 128.121218 
L 463.486792 128.121218 
L 463.486792 127.973932 
L 466.037649 127.973932 
L 466.037649 126.267475 
L 468.718948 126.267475 
L 468.718948 126.129442 
L 471.545182 126.129442 
L 471.545182 125.289347 
L 474.530844 125.289347 
L 474.530844 125.112636 
L 477.701299 125.112636 
L 477.701299 109.735888 
L 484.679922 109.630169 
L 484.679922 109.131564 
L 488.556935 109.131564 
L 488.556935 109.019345 
L 492.738312 109.019345 
L 492.738312 106.47771 
L 497.289273 106.47771 
L 497.289273 106.351191 
L 502.271416 106.351191 
L 502.271416 105.472636 
L 507.778948 105.472636 
L 507.778948 105.268731 
L 513.935065 105.268731 
L 513.935065 90.644501 
L 520.913688 90.644501 
L 520.913688 90.523571 
L 528.972078 90.523571 
L 528.972078 89.16508 
L 538.505182 89.16508 
L 538.505182 88.958806 
L 550.168831 88.958806 
L 550.168831 77.240007 
L 565.205844 77.240007 
L 565.205844 76.850872 
L 586.402597 76.850872 
L 586.402597 69.69779 
L 622.636364 69.69779 
L 622.636364 67.127745 
L 622.636364 67.127745 
" style="fill:none;stroke:#0000ff;stroke-linecap:square;stroke-width:0.5;"/>
   </g>
   <g id="line2d_24"/>
   <g id="line2d_25"/>
   <g id="line2d_26"/>
   <g id="line2d_27"/>
   <g id="line2d_28"/>
   <g id="line2d_29"/>
   <g id="line2d_30"/>
   <g id="line2d_31"/>
   <g id="line2d_32"/>
   <g id="line2d_33"/>
   <g id="line2d_34">
    <path clip-path="url(#p07553b710d)" d="M 115.363636 369.36 
L 151.597403 369.36 
L 151.597403 336.906747 
L 187.831169 336.906747 
L 187.831169 318.218983 
L 224.064935 318.218983 
L 224.064935 298.579884 
L 239.103397 298.579884 
L 239.103397 298.243129 
L 248.633965 298.21749 
L 248.633965 297.514369 
L 254.141497 297.465206 
L 254.141497 297.245657 
L 260.298701 297.148953 
L 260.298701 270.083862 
L 263.672427 270.083862 
L 263.672427 269.960172 
L 267.279136 269.960172 
L 267.279136 269.679955 
L 275.337164 269.649654 
L 275.337164 267.617243 
L 279.885588 267.617243 
L 279.885588 267.445034 
L 284.867731 267.445034 
L 284.867731 266.093969 
L 290.375264 266.093969 
L 290.375264 265.789539 
L 296.532468 265.749074 
L 296.532468 237.879112 
L 303.512903 237.850561 
L 303.512903 237.607895 
L 311.57093 237.554149 
L 311.57093 235.504988 
L 316.119355 235.474261 
L 316.119355 235.356908 
L 321.101497 235.294949 
L 321.101497 234.4739 
L 326.60903 234.385749 
L 326.60903 234.036834 
L 329.597229 234.012554 
L 329.597229 233.863621 
L 332.766234 233.812941 
L 332.766234 210.693929 
L 336.139597 210.682551 
L 336.139597 210.575656 
L 339.744857 210.55945 
L 339.744857 210.279833 
L 343.62187 210.239548 
L 343.62187 210.103197 
L 347.803247 210.070466 
L 347.803247 208.119693 
L 352.354208 208.072048 
L 352.354208 207.764638 
L 356.684143 207.657968 
L 356.684143 207.653514 
L 357.336351 207.653069 
L 357.336351 206.428413 
L 360.017649 206.406067 
L 360.017649 206.313392 
L 362.843883 206.281854 
L 362.843883 205.512844 
L 365.829545 205.462777 
L 365.829545 205.303618 
L 369 205.205323 
L 369 185.91843 
L 372.373364 185.881667 
L 372.373364 185.714692 
L 375.978623 185.665425 
L 375.978623 185.143192 
L 379.855636 185.039997 
L 379.855636 184.852269 
L 382.96087 184.746406 
L 382.96087 184.722421 
L 384.037013 184.715493 
L 384.037013 182.267411 
L 386.261766 182.224285 
L 386.261766 182.15009 
L 388.587974 182.073557 
L 388.587974 181.699011 
L 391.01926 181.631945 
L 391.01926 181.451539 
L 393.570117 181.359938 
L 393.570117 179.734106 
L 395.566597 179.631668 
L 395.566597 179.614909 
L 396.251416 179.614909 
L 396.251416 179.406729 
L 397.642792 179.382391 
L 397.642792 179.291558 
L 399.077649 179.267822 
L 399.077649 178.243423 
L 400.54874 178.217109 
L 400.54874 178.095406 
L 402.063312 178.062581 
L 402.063312 177.732849 
L 403.624987 177.701126 
L 403.624987 177.504266 
L 405.233766 177.467912 
L 405.233766 160.28614 
L 407.744766 160.193355 
L 407.744766 160.174728 
L 408.60713 160.174728 
L 408.60713 159.849323 
L 410.378961 159.82957 
L 410.378961 159.734036 
L 412.21239 159.70209 
L 412.21239 158.983396 
L 414.114662 158.955779 
L 414.114662 158.784477 
L 416.089403 158.750135 
L 416.089403 158.405398 
L 418.13661 158.359273 
L 418.13661 158.181337 
L 420.270779 158.139321 
L 420.270779 155.142382 
L 422.495532 155.102357 
L 422.495532 154.912681 
L 424.82174 154.85115 
L 424.82174 154.279225 
L 427.253026 154.222348 
L 427.253026 153.893456 
L 429.803883 153.822831 
L 429.803883 151.8845 
L 432.485182 151.797507 
L 432.485182 151.445642 
L 435.311416 151.358089 
L 435.311416 150.131337 
L 438.297078 150.029541 
L 438.297078 149.570344 
L 439.858753 149.570344 
L 439.858753 149.436844 
L 441.467532 149.436844 
L 441.467532 133.523257 
L 444.840896 133.469681 
L 444.840896 133.116239 
L 448.446156 133.053253 
L 448.446156 132.224645 
L 452.323169 132.132227 
L 452.323169 131.78471 
L 456.504545 131.69203 
L 456.504545 128.609659 
L 461.055506 128.517916 
L 461.055506 128.052175 
L 463.486792 128.052175 
L 463.486792 127.91431 
L 466.037649 127.91431 
L 466.037649 126.249968 
L 468.718948 126.249968 
L 468.718948 126.119258 
L 471.545182 126.119258 
L 471.545182 125.325053 
L 474.530844 125.325053 
L 474.530844 125.166423 
L 477.701299 125.166423 
L 477.701299 109.540208 
L 484.679922 109.436479 
L 484.679922 108.940349 
L 492.738312 108.842004 
L 492.738312 106.428848 
L 497.289273 106.428848 
L 497.289273 106.309169 
L 502.271416 106.309169 
L 502.271416 105.490194 
L 507.778948 105.490194 
L 507.778948 105.305717 
L 513.935065 105.305717 
L 513.935065 90.690663 
L 520.913688 90.690663 
L 520.913688 90.569057 
L 528.972078 90.569057 
L 528.972078 89.246695 
L 538.505182 89.246695 
L 538.505182 89.065627 
L 550.168831 89.065627 
L 550.168831 77.380546 
L 565.205844 77.380546 
L 565.205844 76.991423 
L 586.402597 76.991423 
L 586.402597 69.752356 
L 622.636364 69.752356 
L 622.636364 67.060236 
L 622.636364 67.060236 
" style="fill:none;stroke:#ff0000;stroke-linecap:square;stroke-width:0.5;"/>
   </g>
   <g id="patch_3">
    <path d="M 90 384.48 
L 90 51.84 
" style="fill:none;stroke:#000000;stroke-linecap:square;stroke-linejoin:miter;stroke-width:0.8;"/>
   </g>
   <g id="patch_4">
    <path d="M 648 384.48 
L 648 51.84 
" style="fill:none;stroke:#000000;stroke-linecap:square;stroke-linejoin:miter;stroke-width:0.8;"/>
   </g>
   <g id="patch_5">
    <path d="M 90 384.48 
L 648 384.48 
" style="fill:none;stroke:#000000;stroke-linecap:square;stroke-linejoin:miter;stroke-width:0.8;"/>
   </g>
   <g id="patch_6">
    <path d="M 90 51.84 
L 648 51.84 
" style="fill:none;stroke:#000000;stroke-linecap:square;stroke-linejoin:miter;stroke-width:0.8;"/>
   </g>
   <g id="legend_1"/>
  </g>
 </g>
 <defs>
  <clipPath id="p07553b710d">
   <rect height="332.64" width="558" x="90" y="51.84"/>
  </clipPath>
 </defs>
</svg>
