<?xml version="1.0" encoding="utf-8" standalone="no"?>
<!DOCTYPE svg PUBLIC "-//W3C//DTD SVG 1.1//EN"
  "http://www.w3.org/Graphics/SVG/1.1/DTD/svg11.dtd">
<!-- Created with matplotlib (https://matplotlib.org/) -->
<svg height="432pt" version="1.1" viewBox="0 0 720 432" width="720pt" xmlns="http://www.w3.org/2000/svg" xmlns:xlink="http://www.w3.org/1999/xlink">
 <defs>
  <style type="text/css">
*{stroke-linecap:butt;stroke-linejoin:round;}
  </style>
 </defs>
 <g id="figure_1">
  <g id="patch_1">
   <path d="M 0 432 
L 720 432 
L 720 0 
L 0 0 
z
" style="fill:#ffffff;"/>
  </g>
  <g id="axes_1">
   <g id="patch_2">
    <path d="M 90 384.48 
L 648 384.48 
L 648 51.84 
L 90 51.84 
z
" style="fill:#ffffff;"/>
   </g>
   <g id="matplotlib.axis_1">
    <g id="xtick_1">
     <g id="line2d_1">
      <defs>
       <path d="M 0 0 
L 0 3.5 
" id="mbdb535b956" style="stroke:#000000;stroke-width:0.8;"/>
      </defs>
      <g>
       <use style="stroke:#000000;stroke-width:0.8;" x="115.363636" xlink:href="#mbdb535b956" y="384.48"/>
      </g>
     </g>
     <g id="text_1">
      <!-- 8 -->
      <defs>
       <path d="M 31.78125 34.625 
Q 24.75 34.625 20.71875 30.859375 
Q 16.703125 27.09375 16.703125 20.515625 
Q 16.703125 13.921875 20.71875 10.15625 
Q 24.75 6.390625 31.78125 6.390625 
Q 38.8125 6.390625 42.859375 10.171875 
Q 46.921875 13.96875 46.921875 20.515625 
Q 46.921875 27.09375 42.890625 30.859375 
Q 38.875 34.625 31.78125 34.625 
z
M 21.921875 38.8125 
Q 15.578125 40.375 12.03125 44.71875 
Q 8.5 49.078125 8.5 55.328125 
Q 8.5 64.0625 14.71875 69.140625 
Q 20.953125 74.21875 31.78125 74.21875 
Q 42.671875 74.21875 48.875 69.140625 
Q 55.078125 64.0625 55.078125 55.328125 
Q 55.078125 49.078125 51.53125 44.71875 
Q 48 40.375 41.703125 38.8125 
Q 48.828125 37.15625 52.796875 32.3125 
Q 56.78125 27.484375 56.78125 20.515625 
Q 56.78125 9.90625 50.3125 4.234375 
Q 43.84375 -1.421875 31.78125 -1.421875 
Q 19.734375 -1.421875 13.25 4.234375 
Q 6.78125 9.90625 6.78125 20.515625 
Q 6.78125 27.484375 10.78125 32.3125 
Q 14.796875 37.15625 21.921875 38.8125 
z
M 18.3125 54.390625 
Q 18.3125 48.734375 21.84375 45.5625 
Q 25.390625 42.390625 31.78125 42.390625 
Q 38.140625 42.390625 41.71875 45.5625 
Q 45.3125 48.734375 45.3125 54.390625 
Q 45.3125 60.0625 41.71875 63.234375 
Q 38.140625 66.40625 31.78125 66.40625 
Q 25.390625 66.40625 21.84375 63.234375 
Q 18.3125 60.0625 18.3125 54.390625 
z
" id="DejaVuSans-56"/>
      </defs>
      <g transform="translate(112.182386 399.078438)scale(0.1 -0.1)">
       <use xlink:href="#DejaVuSans-56"/>
      </g>
     </g>
    </g>
    <g id="xtick_2">
     <g id="line2d_2">
      <g>
       <use style="stroke:#000000;stroke-width:0.8;" x="178.772727" xlink:href="#mbdb535b956" y="384.48"/>
      </g>
     </g>
     <g id="text_2">
      <!-- 10 -->
      <defs>
       <path d="M 12.40625 8.296875 
L 28.515625 8.296875 
L 28.515625 63.921875 
L 10.984375 60.40625 
L 10.984375 69.390625 
L 28.421875 72.90625 
L 38.28125 72.90625 
L 38.28125 8.296875 
L 54.390625 8.296875 
L 54.390625 0 
L 12.40625 0 
z
" id="DejaVuSans-49"/>
       <path d="M 31.78125 66.40625 
Q 24.171875 66.40625 20.328125 58.90625 
Q 16.5 51.421875 16.5 36.375 
Q 16.5 21.390625 20.328125 13.890625 
Q 24.171875 6.390625 31.78125 6.390625 
Q 39.453125 6.390625 43.28125 13.890625 
Q 47.125 21.390625 47.125 36.375 
Q 47.125 51.421875 43.28125 58.90625 
Q 39.453125 66.40625 31.78125 66.40625 
z
M 31.78125 74.21875 
Q 44.046875 74.21875 50.515625 64.515625 
Q 56.984375 54.828125 56.984375 36.375 
Q 56.984375 17.96875 50.515625 8.265625 
Q 44.046875 -1.421875 31.78125 -1.421875 
Q 19.53125 -1.421875 13.0625 8.265625 
Q 6.59375 17.96875 6.59375 36.375 
Q 6.59375 54.828125 13.0625 64.515625 
Q 19.53125 74.21875 31.78125 74.21875 
z
" id="DejaVuSans-48"/>
      </defs>
      <g transform="translate(172.410227 399.078438)scale(0.1 -0.1)">
       <use xlink:href="#DejaVuSans-49"/>
       <use x="63.623047" xlink:href="#DejaVuSans-48"/>
      </g>
     </g>
    </g>
    <g id="xtick_3">
     <g id="line2d_3">
      <g>
       <use style="stroke:#000000;stroke-width:0.8;" x="242.181818" xlink:href="#mbdb535b956" y="384.48"/>
      </g>
     </g>
     <g id="text_3">
      <!-- 12 -->
      <defs>
       <path d="M 19.1875 8.296875 
L 53.609375 8.296875 
L 53.609375 0 
L 7.328125 0 
L 7.328125 8.296875 
Q 12.9375 14.109375 22.625 23.890625 
Q 32.328125 33.6875 34.8125 36.53125 
Q 39.546875 41.84375 41.421875 45.53125 
Q 43.3125 49.21875 43.3125 52.78125 
Q 43.3125 58.59375 39.234375 62.25 
Q 35.15625 65.921875 28.609375 65.921875 
Q 23.96875 65.921875 18.8125 64.3125 
Q 13.671875 62.703125 7.8125 59.421875 
L 7.8125 69.390625 
Q 13.765625 71.78125 18.9375 73 
Q 24.125 74.21875 28.421875 74.21875 
Q 39.75 74.21875 46.484375 68.546875 
Q 53.21875 62.890625 53.21875 53.421875 
Q 53.21875 48.921875 51.53125 44.890625 
Q 49.859375 40.875 45.40625 35.40625 
Q 44.1875 33.984375 37.640625 27.21875 
Q 31.109375 20.453125 19.1875 8.296875 
z
" id="DejaVuSans-50"/>
      </defs>
      <g transform="translate(235.819318 399.078438)scale(0.1 -0.1)">
       <use xlink:href="#DejaVuSans-49"/>
       <use x="63.623047" xlink:href="#DejaVuSans-50"/>
      </g>
     </g>
    </g>
    <g id="xtick_4">
     <g id="line2d_4">
      <g>
       <use style="stroke:#000000;stroke-width:0.8;" x="305.590909" xlink:href="#mbdb535b956" y="384.48"/>
      </g>
     </g>
     <g id="text_4">
      <!-- 14 -->
      <defs>
       <path d="M 37.796875 64.3125 
L 12.890625 25.390625 
L 37.796875 25.390625 
z
M 35.203125 72.90625 
L 47.609375 72.90625 
L 47.609375 25.390625 
L 58.015625 25.390625 
L 58.015625 17.1875 
L 47.609375 17.1875 
L 47.609375 0 
L 37.796875 0 
L 37.796875 17.1875 
L 4.890625 17.1875 
L 4.890625 26.703125 
z
" id="DejaVuSans-52"/>
      </defs>
      <g transform="translate(299.228409 399.078438)scale(0.1 -0.1)">
       <use xlink:href="#DejaVuSans-49"/>
       <use x="63.623047" xlink:href="#DejaVuSans-52"/>
      </g>
     </g>
    </g>
    <g id="xtick_5">
     <g id="line2d_5">
      <g>
       <use style="stroke:#000000;stroke-width:0.8;" x="369" xlink:href="#mbdb535b956" y="384.48"/>
      </g>
     </g>
     <g id="text_5">
      <!-- 16 -->
      <defs>
       <path d="M 33.015625 40.375 
Q 26.375 40.375 22.484375 35.828125 
Q 18.609375 31.296875 18.609375 23.390625 
Q 18.609375 15.53125 22.484375 10.953125 
Q 26.375 6.390625 33.015625 6.390625 
Q 39.65625 6.390625 43.53125 10.953125 
Q 47.40625 15.53125 47.40625 23.390625 
Q 47.40625 31.296875 43.53125 35.828125 
Q 39.65625 40.375 33.015625 40.375 
z
M 52.59375 71.296875 
L 52.59375 62.3125 
Q 48.875 64.0625 45.09375 64.984375 
Q 41.3125 65.921875 37.59375 65.921875 
Q 27.828125 65.921875 22.671875 59.328125 
Q 17.53125 52.734375 16.796875 39.40625 
Q 19.671875 43.65625 24.015625 45.921875 
Q 28.375 48.1875 33.59375 48.1875 
Q 44.578125 48.1875 50.953125 41.515625 
Q 57.328125 34.859375 57.328125 23.390625 
Q 57.328125 12.15625 50.6875 5.359375 
Q 44.046875 -1.421875 33.015625 -1.421875 
Q 20.359375 -1.421875 13.671875 8.265625 
Q 6.984375 17.96875 6.984375 36.375 
Q 6.984375 53.65625 15.1875 63.9375 
Q 23.390625 74.21875 37.203125 74.21875 
Q 40.921875 74.21875 44.703125 73.484375 
Q 48.484375 72.75 52.59375 71.296875 
z
" id="DejaVuSans-54"/>
      </defs>
      <g transform="translate(362.6375 399.078438)scale(0.1 -0.1)">
       <use xlink:href="#DejaVuSans-49"/>
       <use x="63.623047" xlink:href="#DejaVuSans-54"/>
      </g>
     </g>
    </g>
    <g id="xtick_6">
     <g id="line2d_6">
      <g>
       <use style="stroke:#000000;stroke-width:0.8;" x="432.409091" xlink:href="#mbdb535b956" y="384.48"/>
      </g>
     </g>
     <g id="text_6">
      <!-- 18 -->
      <g transform="translate(426.046591 399.078438)scale(0.1 -0.1)">
       <use xlink:href="#DejaVuSans-49"/>
       <use x="63.623047" xlink:href="#DejaVuSans-56"/>
      </g>
     </g>
    </g>
    <g id="xtick_7">
     <g id="line2d_7">
      <g>
       <use style="stroke:#000000;stroke-width:0.8;" x="495.818182" xlink:href="#mbdb535b956" y="384.48"/>
      </g>
     </g>
     <g id="text_7">
      <!-- 20 -->
      <g transform="translate(489.455682 399.078438)scale(0.1 -0.1)">
       <use xlink:href="#DejaVuSans-50"/>
       <use x="63.623047" xlink:href="#DejaVuSans-48"/>
      </g>
     </g>
    </g>
    <g id="xtick_8">
     <g id="line2d_8">
      <g>
       <use style="stroke:#000000;stroke-width:0.8;" x="559.227273" xlink:href="#mbdb535b956" y="384.48"/>
      </g>
     </g>
     <g id="text_8">
      <!-- 22 -->
      <g transform="translate(552.864773 399.078438)scale(0.1 -0.1)">
       <use xlink:href="#DejaVuSans-50"/>
       <use x="63.623047" xlink:href="#DejaVuSans-50"/>
      </g>
     </g>
    </g>
    <g id="xtick_9">
     <g id="line2d_9">
      <g>
       <use style="stroke:#000000;stroke-width:0.8;" x="622.636364" xlink:href="#mbdb535b956" y="384.48"/>
      </g>
     </g>
     <g id="text_9">
      <!-- 24 -->
      <g transform="translate(616.273864 399.078438)scale(0.1 -0.1)">
       <use xlink:href="#DejaVuSans-50"/>
       <use x="63.623047" xlink:href="#DejaVuSans-52"/>
      </g>
     </g>
    </g>
    <g id="text_10">
     <!-- Weight -->
     <defs>
      <path d="M 3.328125 72.90625 
L 13.28125 72.90625 
L 28.609375 11.28125 
L 43.890625 72.90625 
L 54.984375 72.90625 
L 70.3125 11.28125 
L 85.59375 72.90625 
L 95.609375 72.90625 
L 77.296875 0 
L 64.890625 0 
L 49.515625 63.28125 
L 33.984375 0 
L 21.578125 0 
z
" id="DejaVuSans-87"/>
      <path d="M 56.203125 29.59375 
L 56.203125 25.203125 
L 14.890625 25.203125 
Q 15.484375 15.921875 20.484375 11.0625 
Q 25.484375 6.203125 34.421875 6.203125 
Q 39.59375 6.203125 44.453125 7.46875 
Q 49.3125 8.734375 54.109375 11.28125 
L 54.109375 2.78125 
Q 49.265625 0.734375 44.1875 -0.34375 
Q 39.109375 -1.421875 33.890625 -1.421875 
Q 20.796875 -1.421875 13.15625 6.1875 
Q 5.515625 13.8125 5.515625 26.8125 
Q 5.515625 40.234375 12.765625 48.109375 
Q 20.015625 56 32.328125 56 
Q 43.359375 56 49.78125 48.890625 
Q 56.203125 41.796875 56.203125 29.59375 
z
M 47.21875 32.234375 
Q 47.125 39.59375 43.09375 43.984375 
Q 39.0625 48.390625 32.421875 48.390625 
Q 24.90625 48.390625 20.390625 44.140625 
Q 15.875 39.890625 15.1875 32.171875 
z
" id="DejaVuSans-101"/>
      <path d="M 9.421875 54.6875 
L 18.40625 54.6875 
L 18.40625 0 
L 9.421875 0 
z
M 9.421875 75.984375 
L 18.40625 75.984375 
L 18.40625 64.59375 
L 9.421875 64.59375 
z
" id="DejaVuSans-105"/>
      <path d="M 45.40625 27.984375 
Q 45.40625 37.75 41.375 43.109375 
Q 37.359375 48.484375 30.078125 48.484375 
Q 22.859375 48.484375 18.828125 43.109375 
Q 14.796875 37.75 14.796875 27.984375 
Q 14.796875 18.265625 18.828125 12.890625 
Q 22.859375 7.515625 30.078125 7.515625 
Q 37.359375 7.515625 41.375 12.890625 
Q 45.40625 18.265625 45.40625 27.984375 
z
M 54.390625 6.78125 
Q 54.390625 -7.171875 48.1875 -13.984375 
Q 42 -20.796875 29.203125 -20.796875 
Q 24.46875 -20.796875 20.265625 -20.09375 
Q 16.0625 -19.390625 12.109375 -17.921875 
L 12.109375 -9.1875 
Q 16.0625 -11.328125 19.921875 -12.34375 
Q 23.78125 -13.375 27.78125 -13.375 
Q 36.625 -13.375 41.015625 -8.765625 
Q 45.40625 -4.15625 45.40625 5.171875 
L 45.40625 9.625 
Q 42.625 4.78125 38.28125 2.390625 
Q 33.9375 0 27.875 0 
Q 17.828125 0 11.671875 7.65625 
Q 5.515625 15.328125 5.515625 27.984375 
Q 5.515625 40.671875 11.671875 48.328125 
Q 17.828125 56 27.875 56 
Q 33.9375 56 38.28125 53.609375 
Q 42.625 51.21875 45.40625 46.390625 
L 45.40625 54.6875 
L 54.390625 54.6875 
z
" id="DejaVuSans-103"/>
      <path d="M 54.890625 33.015625 
L 54.890625 0 
L 45.90625 0 
L 45.90625 32.71875 
Q 45.90625 40.484375 42.875 44.328125 
Q 39.84375 48.1875 33.796875 48.1875 
Q 26.515625 48.1875 22.3125 43.546875 
Q 18.109375 38.921875 18.109375 30.90625 
L 18.109375 0 
L 9.078125 0 
L 9.078125 75.984375 
L 18.109375 75.984375 
L 18.109375 46.1875 
Q 21.34375 51.125 25.703125 53.5625 
Q 30.078125 56 35.796875 56 
Q 45.21875 56 50.046875 50.171875 
Q 54.890625 44.34375 54.890625 33.015625 
z
" id="DejaVuSans-104"/>
      <path d="M 18.3125 70.21875 
L 18.3125 54.6875 
L 36.8125 54.6875 
L 36.8125 47.703125 
L 18.3125 47.703125 
L 18.3125 18.015625 
Q 18.3125 11.328125 20.140625 9.421875 
Q 21.96875 7.515625 27.59375 7.515625 
L 36.8125 7.515625 
L 36.8125 0 
L 27.59375 0 
Q 17.1875 0 13.234375 3.875 
Q 9.28125 7.765625 9.28125 18.015625 
L 9.28125 47.703125 
L 2.6875 47.703125 
L 2.6875 54.6875 
L 9.28125 54.6875 
L 9.28125 70.21875 
z
" id="DejaVuSans-116"/>
     </defs>
     <g transform="translate(351.291406 412.756563)scale(0.1 -0.1)">
      <use xlink:href="#DejaVuSans-87"/>
      <use x="98.798828" xlink:href="#DejaVuSans-101"/>
      <use x="160.322266" xlink:href="#DejaVuSans-105"/>
      <use x="188.105469" xlink:href="#DejaVuSans-103"/>
      <use x="251.582031" xlink:href="#DejaVuSans-104"/>
      <use x="314.960938" xlink:href="#DejaVuSans-116"/>
     </g>
    </g>
   </g>
   <g id="matplotlib.axis_2">
    <g id="ytick_1">
     <g id="line2d_10">
      <defs>
       <path d="M 0 0 
L -3.5 0 
" id="m7c93207a09" style="stroke:#000000;stroke-width:0.8;"/>
      </defs>
      <g>
       <use style="stroke:#000000;stroke-width:0.8;" x="90" xlink:href="#m7c93207a09" y="357.756166"/>
      </g>
     </g>
     <g id="text_11">
      <!-- 10 -->
      <g transform="translate(70.275 361.555384)scale(0.1 -0.1)">
       <use xlink:href="#DejaVuSans-49"/>
       <use x="63.623047" xlink:href="#DejaVuSans-48"/>
      </g>
     </g>
    </g>
    <g id="ytick_2">
     <g id="line2d_11">
      <g>
       <use style="stroke:#000000;stroke-width:0.8;" x="90" xlink:href="#m7c93207a09" y="291.904529"/>
      </g>
     </g>
     <g id="text_12">
      <!-- 15 -->
      <defs>
       <path d="M 10.796875 72.90625 
L 49.515625 72.90625 
L 49.515625 64.59375 
L 19.828125 64.59375 
L 19.828125 46.734375 
Q 21.96875 47.46875 24.109375 47.828125 
Q 26.265625 48.1875 28.421875 48.1875 
Q 40.625 48.1875 47.75 41.5 
Q 54.890625 34.8125 54.890625 23.390625 
Q 54.890625 11.625 47.5625 5.09375 
Q 40.234375 -1.421875 26.90625 -1.421875 
Q 22.3125 -1.421875 17.546875 -0.640625 
Q 12.796875 0.140625 7.71875 1.703125 
L 7.71875 11.625 
Q 12.109375 9.234375 16.796875 8.0625 
Q 21.484375 6.890625 26.703125 6.890625 
Q 35.15625 6.890625 40.078125 11.328125 
Q 45.015625 15.765625 45.015625 23.390625 
Q 45.015625 31 40.078125 35.4375 
Q 35.15625 39.890625 26.703125 39.890625 
Q 22.75 39.890625 18.8125 39.015625 
Q 14.890625 38.140625 10.796875 36.28125 
z
" id="DejaVuSans-53"/>
      </defs>
      <g transform="translate(70.275 295.703748)scale(0.1 -0.1)">
       <use xlink:href="#DejaVuSans-49"/>
       <use x="63.623047" xlink:href="#DejaVuSans-53"/>
      </g>
     </g>
    </g>
    <g id="ytick_3">
     <g id="line2d_12">
      <g>
       <use style="stroke:#000000;stroke-width:0.8;" x="90" xlink:href="#m7c93207a09" y="226.052893"/>
      </g>
     </g>
     <g id="text_13">
      <!-- 20 -->
      <g transform="translate(70.275 229.852111)scale(0.1 -0.1)">
       <use xlink:href="#DejaVuSans-50"/>
       <use x="63.623047" xlink:href="#DejaVuSans-48"/>
      </g>
     </g>
    </g>
    <g id="ytick_4">
     <g id="line2d_13">
      <g>
       <use style="stroke:#000000;stroke-width:0.8;" x="90" xlink:href="#m7c93207a09" y="160.201256"/>
      </g>
     </g>
     <g id="text_14">
      <!-- 25 -->
      <g transform="translate(70.275 164.000475)scale(0.1 -0.1)">
       <use xlink:href="#DejaVuSans-50"/>
       <use x="63.623047" xlink:href="#DejaVuSans-53"/>
      </g>
     </g>
    </g>
    <g id="ytick_5">
     <g id="line2d_14">
      <g>
       <use style="stroke:#000000;stroke-width:0.8;" x="90" xlink:href="#m7c93207a09" y="94.34962"/>
      </g>
     </g>
     <g id="text_15">
      <!-- 30 -->
      <defs>
       <path d="M 40.578125 39.3125 
Q 47.65625 37.796875 51.625 33 
Q 55.609375 28.21875 55.609375 21.1875 
Q 55.609375 10.40625 48.1875 4.484375 
Q 40.765625 -1.421875 27.09375 -1.421875 
Q 22.515625 -1.421875 17.65625 -0.515625 
Q 12.796875 0.390625 7.625 2.203125 
L 7.625 11.71875 
Q 11.71875 9.328125 16.59375 8.109375 
Q 21.484375 6.890625 26.8125 6.890625 
Q 36.078125 6.890625 40.9375 10.546875 
Q 45.796875 14.203125 45.796875 21.1875 
Q 45.796875 27.640625 41.28125 31.265625 
Q 36.765625 34.90625 28.71875 34.90625 
L 20.21875 34.90625 
L 20.21875 43.015625 
L 29.109375 43.015625 
Q 36.375 43.015625 40.234375 45.921875 
Q 44.09375 48.828125 44.09375 54.296875 
Q 44.09375 59.90625 40.109375 62.90625 
Q 36.140625 65.921875 28.71875 65.921875 
Q 24.65625 65.921875 20.015625 65.03125 
Q 15.375 64.15625 9.8125 62.3125 
L 9.8125 71.09375 
Q 15.4375 72.65625 20.34375 73.4375 
Q 25.25 74.21875 29.59375 74.21875 
Q 40.828125 74.21875 47.359375 69.109375 
Q 53.90625 64.015625 53.90625 55.328125 
Q 53.90625 49.265625 50.4375 45.09375 
Q 46.96875 40.921875 40.578125 39.3125 
z
" id="DejaVuSans-51"/>
      </defs>
      <g transform="translate(70.275 98.148839)scale(0.1 -0.1)">
       <use xlink:href="#DejaVuSans-51"/>
       <use x="63.623047" xlink:href="#DejaVuSans-48"/>
      </g>
     </g>
    </g>
    <g id="text_16">
     <!-- log2(count) -->
     <defs>
      <path d="M 9.421875 75.984375 
L 18.40625 75.984375 
L 18.40625 0 
L 9.421875 0 
z
" id="DejaVuSans-108"/>
      <path d="M 30.609375 48.390625 
Q 23.390625 48.390625 19.1875 42.75 
Q 14.984375 37.109375 14.984375 27.296875 
Q 14.984375 17.484375 19.15625 11.84375 
Q 23.34375 6.203125 30.609375 6.203125 
Q 37.796875 6.203125 41.984375 11.859375 
Q 46.1875 17.53125 46.1875 27.296875 
Q 46.1875 37.015625 41.984375 42.703125 
Q 37.796875 48.390625 30.609375 48.390625 
z
M 30.609375 56 
Q 42.328125 56 49.015625 48.375 
Q 55.71875 40.765625 55.71875 27.296875 
Q 55.71875 13.875 49.015625 6.21875 
Q 42.328125 -1.421875 30.609375 -1.421875 
Q 18.84375 -1.421875 12.171875 6.21875 
Q 5.515625 13.875 5.515625 27.296875 
Q 5.515625 40.765625 12.171875 48.375 
Q 18.84375 56 30.609375 56 
z
" id="DejaVuSans-111"/>
      <path d="M 31 75.875 
Q 24.46875 64.65625 21.28125 53.65625 
Q 18.109375 42.671875 18.109375 31.390625 
Q 18.109375 20.125 21.3125 9.0625 
Q 24.515625 -2 31 -13.1875 
L 23.1875 -13.1875 
Q 15.875 -1.703125 12.234375 9.375 
Q 8.59375 20.453125 8.59375 31.390625 
Q 8.59375 42.28125 12.203125 53.3125 
Q 15.828125 64.359375 23.1875 75.875 
z
" id="DejaVuSans-40"/>
      <path d="M 48.78125 52.59375 
L 48.78125 44.1875 
Q 44.96875 46.296875 41.140625 47.34375 
Q 37.3125 48.390625 33.40625 48.390625 
Q 24.65625 48.390625 19.8125 42.84375 
Q 14.984375 37.3125 14.984375 27.296875 
Q 14.984375 17.28125 19.8125 11.734375 
Q 24.65625 6.203125 33.40625 6.203125 
Q 37.3125 6.203125 41.140625 7.25 
Q 44.96875 8.296875 48.78125 10.40625 
L 48.78125 2.09375 
Q 45.015625 0.34375 40.984375 -0.53125 
Q 36.96875 -1.421875 32.421875 -1.421875 
Q 20.0625 -1.421875 12.78125 6.34375 
Q 5.515625 14.109375 5.515625 27.296875 
Q 5.515625 40.671875 12.859375 48.328125 
Q 20.21875 56 33.015625 56 
Q 37.15625 56 41.109375 55.140625 
Q 45.0625 54.296875 48.78125 52.59375 
z
" id="DejaVuSans-99"/>
      <path d="M 8.5 21.578125 
L 8.5 54.6875 
L 17.484375 54.6875 
L 17.484375 21.921875 
Q 17.484375 14.15625 20.5 10.265625 
Q 23.53125 6.390625 29.59375 6.390625 
Q 36.859375 6.390625 41.078125 11.03125 
Q 45.3125 15.671875 45.3125 23.6875 
L 45.3125 54.6875 
L 54.296875 54.6875 
L 54.296875 0 
L 45.3125 0 
L 45.3125 8.40625 
Q 42.046875 3.421875 37.71875 1 
Q 33.40625 -1.421875 27.6875 -1.421875 
Q 18.265625 -1.421875 13.375 4.4375 
Q 8.5 10.296875 8.5 21.578125 
z
M 31.109375 56 
z
" id="DejaVuSans-117"/>
      <path d="M 54.890625 33.015625 
L 54.890625 0 
L 45.90625 0 
L 45.90625 32.71875 
Q 45.90625 40.484375 42.875 44.328125 
Q 39.84375 48.1875 33.796875 48.1875 
Q 26.515625 48.1875 22.3125 43.546875 
Q 18.109375 38.921875 18.109375 30.90625 
L 18.109375 0 
L 9.078125 0 
L 9.078125 54.6875 
L 18.109375 54.6875 
L 18.109375 46.1875 
Q 21.34375 51.125 25.703125 53.5625 
Q 30.078125 56 35.796875 56 
Q 45.21875 56 50.046875 50.171875 
Q 54.890625 44.34375 54.890625 33.015625 
z
" id="DejaVuSans-110"/>
      <path d="M 8.015625 75.875 
L 15.828125 75.875 
Q 23.140625 64.359375 26.78125 53.3125 
Q 30.421875 42.28125 30.421875 31.390625 
Q 30.421875 20.453125 26.78125 9.375 
Q 23.140625 -1.703125 15.828125 -13.1875 
L 8.015625 -13.1875 
Q 14.5 -2 17.703125 9.0625 
Q 20.90625 20.125 20.90625 31.390625 
Q 20.90625 42.671875 17.703125 53.65625 
Q 14.5 64.65625 8.015625 75.875 
z
" id="DejaVuSans-41"/>
     </defs>
     <g transform="translate(64.195312 246.971719)rotate(-90)scale(0.1 -0.1)">
      <use xlink:href="#DejaVuSans-108"/>
      <use x="27.783203" xlink:href="#DejaVuSans-111"/>
      <use x="88.964844" xlink:href="#DejaVuSans-103"/>
      <use x="152.441406" xlink:href="#DejaVuSans-50"/>
      <use x="216.064453" xlink:href="#DejaVuSans-40"/>
      <use x="255.078125" xlink:href="#DejaVuSans-99"/>
      <use x="310.058594" xlink:href="#DejaVuSans-111"/>
      <use x="371.240234" xlink:href="#DejaVuSans-117"/>
      <use x="434.619141" xlink:href="#DejaVuSans-110"/>
      <use x="497.998047" xlink:href="#DejaVuSans-116"/>
      <use x="537.207031" xlink:href="#DejaVuSans-41"/>
     </g>
    </g>
   </g>
   <g id="line2d_15">
    <path clip-path="url(#p151139576f)" d="M 115.363636 367.912876 
L 147.068182 367.912876 
L 147.068182 323.597281 
L 178.772727 323.597281 
L 178.772727 293.748112 
L 210.477273 293.748112 
L 210.477273 272.059639 
L 242.181818 272.059639 
L 242.181818 255.073512 
L 273.886364 255.072176 
L 273.886364 239.914475 
L 295.385216 239.819288 
L 295.385216 239.731945 
L 305.590909 239.646262 
L 305.590909 225.335114 
L 311.697205 225.287278 
L 311.697205 225.170502 
L 318.748295 225.099608 
L 318.748295 224.376106 
L 322.730386 224.336662 
L 322.730386 224.190954 
L 327.089761 224.140354 
L 327.089761 223.376842 
L 331.908852 223.335915 
L 331.908852 222.918555 
L 335.887773 222.808829 
L 335.887773 222.785897 
L 337.295455 222.783639 
L 337.295455 208.042055 
L 340.247148 208.02445 
L 340.247148 207.871567 
L 343.40175 207.859036 
L 343.40175 207.376571 
L 346.794136 207.332343 
L 346.794136 207.185726 
L 350.452841 207.107658 
L 350.452841 204.194734 
L 354.434932 204.100357 
L 354.434932 203.735321 
L 356.562307 203.727205 
L 356.562307 203.554843 
L 358.794307 203.540508 
L 358.794307 201.546628 
L 362.982477 201.437651 
L 362.982477 201.428793 
L 363.613398 201.428793 
L 363.613398 200.442799 
L 366.225852 200.383579 
L 366.225852 200.203378 
L 369 200.121967 
L 369 184.024396 
L 371.951693 183.988979 
L 371.951693 183.742502 
L 375.106295 183.716324 
L 375.106295 182.86563 
L 378.498682 182.786178 
L 378.498682 182.545321 
L 382.157386 182.442065 
L 382.157386 177.693077 
L 386.139477 177.585017 
L 386.139477 177.1695 
L 388.266852 177.156659 
L 388.266852 176.956164 
L 390.498852 176.940427 
L 390.498852 174.498114 
L 392.844989 174.467075 
L 392.844989 174.366682 
L 395.317943 174.334437 
L 395.317943 173.165573 
L 397.930398 173.110258 
L 397.930398 172.896476 
L 400.704545 172.824294 
L 400.704545 157.787788 
L 403.656239 157.756108 
L 403.656239 157.486974 
L 406.810841 157.462269 
L 406.810841 156.537694 
L 410.203227 156.471072 
L 410.203227 156.216192 
L 413.861932 156.136611 
L 413.861932 151.250702 
L 417.844023 151.175465 
L 417.844023 150.778087 
L 419.971398 150.770988 
L 419.971398 150.633076 
L 422.203398 150.623213 
L 422.203398 148.366155 
L 425.766989 148.262988 
L 425.766989 148.251539 
L 427.022489 148.250015 
L 427.022489 147.238516 
L 429.634943 147.21318 
L 429.634943 147.047353 
L 432.409091 147.010197 
L 432.409091 133.559675 
L 435.360784 133.543058 
L 435.360784 133.342104 
L 438.515386 133.329394 
L 438.515386 132.491067 
L 441.907773 132.459756 
L 441.907773 132.261699 
L 445.566477 132.220709 
L 445.566477 127.8625 
L 449.548568 127.828811 
L 449.548568 127.533689 
L 453.907943 127.463181 
L 453.907943 125.572797 
L 458.727034 125.519828 
L 458.727034 124.820125 
L 464.113636 124.717866 
L 464.113636 112.630146 
L 470.219932 112.521136 
L 470.219932 111.917273 
L 473.612318 111.909756 
L 473.612318 111.797162 
L 477.271023 111.787488 
L 477.271023 108.164945 
L 481.253114 108.157319 
L 481.253114 108.00132 
L 485.612489 107.9855 
L 485.612489 106.664558 
L 490.43158 106.651772 
L 490.43158 106.293475 
L 495.818182 106.269616 
L 495.818182 95.510908 
L 501.924477 95.482485 
L 501.924477 95.166381 
L 508.975568 95.134397 
L 508.975568 92.491031 
L 517.317034 92.447067 
L 517.317034 91.775993 
L 527.522727 91.676528 
L 527.522727 82.453542 
L 540.680114 82.362234 
L 540.680114 80.887708 
L 549.02158 80.887708 
L 549.02158 80.710483 
L 559.227273 80.710483 
L 559.227273 73.680397 
L 572.384659 73.680397 
L 572.384659 73.218788 
L 590.931818 73.218788 
L 590.931818 69.061333 
L 622.636364 69.061333 
L 622.636364 67.68999 
L 622.636364 67.68999 
" style="fill:none;stroke:#0000ff;stroke-linecap:square;stroke-width:0.5;"/>
   </g>
   <g id="line2d_16">
    <path clip-path="url(#p151139576f)" d="M 115.363636 367.94457 
L 147.068182 367.94457 
L 147.068182 323.572705 
L 178.772727 323.572705 
L 178.772727 293.702801 
L 210.477273 293.702801 
L 210.477273 272.029871 
L 242.181818 272.029871 
L 242.181818 255.114368 
L 273.886364 255.108849 
L 273.886364 239.88218 
L 295.385216 239.777227 
L 295.385216 239.69264 
L 305.590909 239.600958 
L 305.590909 225.238537 
L 311.697205 225.194441 
L 311.697205 225.095869 
L 318.748295 225.034782 
L 318.748295 224.277568 
L 322.730386 224.23744 
L 322.730386 224.103425 
L 327.089761 224.061704 
L 327.089761 223.377881 
L 331.908852 223.348405 
L 331.908852 222.923288 
L 334.521307 222.904931 
L 334.521307 222.802994 
L 337.295455 222.769304 
L 337.295455 207.800167 
L 340.247148 207.787267 
L 340.247148 207.621623 
L 343.40175 207.611562 
L 343.40175 207.153785 
L 346.794136 207.122747 
L 346.794136 206.970443 
L 350.452841 206.915139 
L 350.452841 203.955722 
L 354.434932 203.86423 
L 354.434932 203.5214 
L 356.562307 203.514038 
L 356.562307 203.392853 
L 358.794307 203.380985 
L 358.794307 201.478989 
L 362.982477 201.375539 
L 362.982477 201.360672 
L 363.613398 201.360672 
L 363.613398 200.379398 
L 366.225852 200.326709 
L 366.225852 200.127898 
L 369 200.047459 
L 369 183.696376 
L 371.951693 183.663319 
L 371.951693 183.380473 
L 375.106295 183.357264 
L 375.106295 182.600378 
L 378.498682 182.528734 
L 378.498682 182.294963 
L 382.157386 182.207124 
L 382.157386 177.522871 
L 386.139477 177.416341 
L 386.139477 176.975799 
L 388.266852 176.967531 
L 388.266852 176.774153 
L 390.498852 176.757895 
L 390.498852 174.486331 
L 392.844989 174.455748 
L 392.844989 174.354687 
L 395.317943 174.322967 
L 395.317943 173.199536 
L 397.930398 173.155482 
L 397.930398 172.943391 
L 400.704545 172.864569 
L 400.704545 157.557299 
L 403.656239 157.52953 
L 403.656239 157.225608 
L 406.810841 157.206124 
L 406.810841 156.363195 
L 410.203227 156.30178 
L 410.203227 156.053473 
L 413.861932 155.988566 
L 413.861932 151.114154 
L 417.844023 151.044655 
L 417.844023 150.641163 
L 419.971398 150.635515 
L 419.971398 150.508581 
L 422.203398 150.49803 
L 422.203398 148.421748 
L 425.766989 148.313437 
L 425.766989 148.301927 
L 427.022489 148.301104 
L 427.022489 147.291548 
L 429.634943 147.271116 
L 429.634943 147.106872 
L 432.409091 147.068114 
L 432.409091 133.415871 
L 435.360784 133.401683 
L 435.360784 133.183453 
L 438.515386 133.173424 
L 438.515386 132.39639 
L 441.907773 132.365738 
L 441.907773 132.1746 
L 445.566477 132.14283 
L 445.566477 127.770476 
L 449.548568 127.736847 
L 449.548568 127.434872 
L 453.907943 127.368547 
L 453.907943 125.647323 
L 458.727034 125.588941 
L 458.727034 124.899483 
L 464.113636 124.790527 
L 464.113636 112.638656 
L 467.06533 112.634436 
L 467.06533 112.521047 
L 470.219932 112.518415 
L 470.219932 111.947015 
L 473.612318 111.937474 
L 473.612318 111.824787 
L 477.271023 111.816256 
L 477.271023 108.198823 
L 481.253114 108.189553 
L 481.253114 108.021318 
L 485.612489 108.004495 
L 485.612489 106.777538 
L 490.43158 106.763285 
L 490.43158 106.401875 
L 495.818182 106.370522 
L 495.818182 95.603263 
L 501.924477 95.570083 
L 501.924477 95.254432 
L 508.975568 95.217307 
L 508.975568 92.596471 
L 517.317034 92.543691 
L 517.317034 91.880801 
L 527.522727 91.770497 
L 527.522727 82.603375 
L 540.680114 82.502462 
L 540.680114 81.003572 
L 549.02158 81.003572 
L 549.02158 80.803724 
L 559.227273 80.803724 
L 559.227273 73.804343 
L 572.384659 73.804343 
L 572.384659 73.309148 
L 590.931818 73.309148 
L 590.931818 69.070263 
L 622.636364 69.070263 
L 622.636364 67.599461 
L 622.636364 67.599461 
" style="fill:none;stroke:#0000ff;stroke-linecap:square;stroke-width:0.5;"/>
   </g>
   <g id="line2d_17">
    <path clip-path="url(#p151139576f)" d="M 115.363636 368.688525 
L 147.068182 368.688525 
L 147.068182 323.711363 
L 178.772727 323.711363 
L 178.772727 293.51695 
L 210.477273 293.51695 
L 210.477273 271.627718 
L 242.181818 271.627718 
L 242.181818 255.037157 
L 273.886364 255.03191 
L 273.886364 240.119583 
L 295.385216 240.025029 
L 295.385216 239.891412 
L 305.590909 239.795407 
L 305.590909 224.95724 
L 311.697205 224.920687 
L 311.697205 224.822977 
L 318.748295 224.763183 
L 318.748295 223.904094 
L 322.730386 223.878687 
L 322.730386 223.734239 
L 327.089761 223.70017 
L 327.089761 222.915912 
L 331.908852 222.883463 
L 331.908852 222.496937 
L 334.521307 222.481569 
L 334.521307 222.362091 
L 337.295455 222.345953 
L 337.295455 207.364742 
L 340.247148 207.350449 
L 340.247148 207.220425 
L 343.40175 207.211731 
L 343.40175 206.788577 
L 346.794136 206.752308 
L 346.794136 206.618004 
L 350.452841 206.551914 
L 350.452841 203.581702 
L 354.434932 203.509933 
L 354.434932 203.153383 
L 356.562307 203.143759 
L 356.562307 203.017647 
L 358.794307 203.003959 
L 358.794307 201.130115 
L 362.982477 201.024513 
L 362.982477 201.017806 
L 363.613398 201.017806 
L 363.613398 200.236781 
L 366.225852 200.197433 
L 366.225852 199.977996 
L 369 199.906456 
L 369 183.484783 
L 371.951693 183.457866 
L 371.951693 183.202006 
L 375.106295 183.179379 
L 375.106295 182.325395 
L 378.498682 182.257235 
L 378.498682 182.053577 
L 382.157386 181.956249 
L 382.157386 177.277144 
L 386.139477 177.186762 
L 386.139477 176.731355 
L 388.266852 176.721012 
L 388.266852 176.53982 
L 390.498852 176.522717 
L 390.498852 174.236121 
L 392.844989 174.206984 
L 392.844989 174.10521 
L 395.317943 174.075311 
L 395.317943 173.045727 
L 397.930398 173.012472 
L 397.930398 172.768303 
L 400.704545 172.70844 
L 400.704545 157.194459 
L 403.656239 157.17068 
L 403.656239 156.894671 
L 406.810841 156.874116 
L 406.810841 155.940642 
L 410.203227 155.887683 
L 410.203227 155.665157 
L 413.861932 155.602071 
L 413.861932 150.882081 
L 417.844023 150.822874 
L 417.844023 150.441489 
L 419.971398 150.435227 
L 419.971398 150.309753 
L 422.203398 150.297553 
L 422.203398 148.172749 
L 427.022489 148.064557 
L 427.022489 147.167588 
L 429.634943 147.14763 
L 429.634943 146.987769 
L 432.409091 146.953832 
L 432.409091 133.272666 
L 435.360784 133.258379 
L 435.360784 133.068964 
L 438.515386 133.056783 
L 438.515386 132.253767 
L 441.907773 132.223528 
L 441.907773 132.057207 
L 445.566477 132.020636 
L 445.566477 127.790508 
L 449.548568 127.758947 
L 449.548568 127.497346 
L 453.907943 127.420415 
L 453.907943 125.730966 
L 458.727034 125.670457 
L 458.727034 125.057519 
L 462.705955 124.95408 
L 462.705955 124.942211 
L 464.113636 124.942211 
L 464.113636 112.911926 
L 467.06533 112.906933 
L 467.06533 112.790684 
L 470.219932 112.787137 
L 470.219932 112.190006 
L 473.612318 112.18011 
L 473.612318 112.071516 
L 477.271023 112.059505 
L 477.271023 108.5635 
L 481.253114 108.554202 
L 481.253114 108.388 
L 485.612489 108.367125 
L 485.612489 107.14687 
L 490.43158 107.128632 
L 490.43158 106.755749 
L 495.818182 106.721222 
L 495.818182 96.083693 
L 501.924477 96.042705 
L 501.924477 95.678533 
L 508.975568 95.638345 
L 508.975568 93.021035 
L 517.317034 92.963582 
L 517.317034 92.256359 
L 522.136125 92.256359 
L 522.136125 92.132916 
L 527.522727 92.132916 
L 527.522727 82.872907 
L 533.629023 82.872907 
L 533.629023 82.752935 
L 540.680114 82.752935 
L 540.680114 81.184483 
L 549.02158 81.184483 
L 549.02158 80.962881 
L 559.227273 80.962881 
L 559.227273 73.712498 
L 572.384659 73.712498 
L 572.384659 73.185866 
L 590.931818 73.185866 
L 590.931818 68.74605 
L 622.636364 68.74605 
L 622.636364 67.214669 
L 622.636364 67.214669 
" style="fill:none;stroke:#0000ff;stroke-linecap:square;stroke-width:0.5;"/>
   </g>
   <g id="line2d_18">
    <path clip-path="url(#p151139576f)" d="M 115.363636 367.22865 
L 147.068182 367.22865 
L 147.068182 323.514463 
L 178.772727 323.514463 
L 178.772727 293.691331 
L 210.477273 293.691331 
L 210.477273 271.963165 
L 242.181818 271.963165 
L 242.181818 255.062248 
L 273.886364 255.05049 
L 273.886364 240.037319 
L 288.990409 239.929176 
L 288.990409 239.913986 
L 295.385216 239.887846 
L 295.385216 239.786819 
L 302.816761 239.686623 
L 302.816761 239.661313 
L 305.590909 239.655306 
L 305.590909 225.24326 
L 311.697205 225.192432 
L 311.697205 225.059771 
L 318.748295 224.990915 
L 318.748295 224.083582 
L 322.730386 224.05141 
L 322.730386 223.914453 
L 327.089761 223.853751 
L 327.089761 223.04704 
L 331.908852 223.011972 
L 331.908852 222.512662 
L 334.521307 222.480053 
L 334.521307 222.371808 
L 337.295455 222.348801 
L 337.295455 207.900654 
L 340.247148 207.8821 
L 340.247148 207.729103 
L 343.40175 207.720194 
L 343.40175 207.242309 
L 346.794136 207.203914 
L 346.794136 207.046575 
L 350.452841 206.986293 
L 350.452841 203.812641 
L 354.434932 203.725068 
L 354.434932 203.376359 
L 356.562307 203.365089 
L 356.562307 203.207746 
L 358.794307 203.198502 
L 358.794307 201.22613 
L 363.613398 201.11757 
L 363.613398 200.072364 
L 366.225852 200.025289 
L 366.225852 199.826163 
L 369 199.749472 
L 369 183.941367 
L 371.951693 183.907682 
L 371.951693 183.635891 
L 375.106295 183.617132 
L 375.106295 182.808663 
L 378.498682 182.731993 
L 378.498682 182.498715 
L 382.157386 182.418753 
L 382.157386 177.529939 
L 386.139477 177.429926 
L 386.139477 176.999262 
L 388.266852 176.989192 
L 388.266852 176.801426 
L 390.498852 176.788615 
L 390.498852 174.486717 
L 392.844989 174.454893 
L 392.844989 174.355538 
L 395.317943 174.322719 
L 395.317943 173.118824 
L 397.930398 173.077405 
L 397.930398 172.86529 
L 400.704545 172.788648 
L 400.704545 157.765553 
L 403.656239 157.736367 
L 403.656239 157.456565 
L 406.810841 157.43807 
L 406.810841 156.549087 
L 410.203227 156.482048 
L 410.203227 156.244121 
L 413.861932 156.180385 
L 413.861932 151.16271 
L 417.844023 151.090148 
L 417.844023 150.696772 
L 419.971398 150.689746 
L 419.971398 150.554447 
L 422.203398 150.544551 
L 422.203398 148.464483 
L 424.549534 148.444529 
L 424.549534 148.352647 
L 427.022489 148.334631 
L 427.022489 147.307335 
L 429.634943 147.283597 
L 429.634943 147.114667 
L 432.409091 147.072047 
L 432.409091 133.593881 
L 435.360784 133.578439 
L 435.360784 133.374503 
L 438.515386 133.363222 
L 438.515386 132.560845 
L 441.907773 132.525965 
L 441.907773 132.327178 
L 445.566477 132.291485 
L 445.566477 127.768421 
L 449.548568 127.733892 
L 449.548568 127.440416 
L 453.907943 127.362832 
L 453.907943 125.649171 
L 458.727034 125.583581 
L 458.727034 124.875298 
L 462.705955 124.76474 
L 462.705955 124.753883 
L 464.113636 124.753883 
L 464.113636 112.672461 
L 467.06533 112.667885 
L 467.06533 112.560297 
L 470.219932 112.557367 
L 470.219932 111.968069 
L 473.612318 111.958632 
L 473.612318 111.837064 
L 477.271023 111.827339 
L 477.271023 108.118615 
L 481.253114 108.10972 
L 481.253114 107.943808 
L 485.612489 107.924695 
L 485.612489 106.707465 
L 490.43158 106.691513 
L 490.43158 106.320204 
L 495.818182 106.286646 
L 495.818182 95.565742 
L 501.924477 95.53463 
L 501.924477 95.205956 
L 508.975568 95.167359 
L 508.975568 92.505645 
L 517.317034 92.455312 
L 517.317034 91.80111 
L 527.522727 91.695319 
L 527.522727 82.576671 
L 540.680114 82.47476 
L 540.680114 80.98295 
L 549.02158 80.98295 
L 549.02158 80.791242 
L 559.227273 80.791242 
L 559.227273 73.842849 
L 572.384659 73.842849 
L 572.384659 73.370488 
L 590.931818 73.370488 
L 590.931818 69.19686 
L 622.636364 69.19686 
L 622.636364 67.780413 
L 622.636364 67.780413 
" style="fill:none;stroke:#0000ff;stroke-linecap:square;stroke-width:0.5;"/>
   </g>
   <g id="line2d_19">
    <path clip-path="url(#p151139576f)" d="M 115.363636 368.426441 
L 147.068182 368.426441 
L 147.068182 323.711363 
L 178.772727 323.711363 
L 178.772727 293.530841 
L 210.477273 293.530841 
L 210.477273 271.612964 
L 242.181818 271.612964 
L 242.181818 255.027247 
L 273.886364 255.021004 
L 273.886364 240.066923 
L 295.385216 239.981379 
L 295.385216 239.871715 
L 305.590909 239.762904 
L 305.590909 224.823181 
L 311.697205 224.800825 
L 311.697205 224.709012 
L 318.748295 224.618145 
L 318.748295 223.895066 
L 322.730386 223.877621 
L 322.730386 223.756176 
L 327.089761 223.708722 
L 327.089761 223.00836 
L 331.908852 222.973872 
L 331.908852 222.639664 
L 334.521307 222.624877 
L 334.521307 222.475459 
L 337.295455 222.45819 
L 337.295455 207.237354 
L 340.247148 207.228908 
L 340.247148 207.106622 
L 343.40175 207.099002 
L 343.40175 206.636178 
L 346.794136 206.595356 
L 346.794136 206.455569 
L 350.452841 206.380856 
L 350.452841 203.632427 
L 354.434932 203.567097 
L 354.434932 203.215496 
L 356.562307 203.206308 
L 356.562307 203.080782 
L 358.794307 203.06252 
L 358.794307 201.223515 
L 362.357898 201.121741 
L 362.357898 201.096558 
L 363.613398 201.08515 
L 363.613398 200.289076 
L 366.225852 200.238211 
L 366.225852 200.021021 
L 369 199.950764 
L 369 183.33022 
L 371.951693 183.301021 
L 371.951693 183.067935 
L 375.106295 183.038753 
L 375.106295 182.195205 
L 378.498682 182.117764 
L 378.498682 181.897251 
L 381.215761 181.79055 
L 381.215761 181.786006 
L 382.157386 181.785865 
L 382.157386 177.306512 
L 386.139477 177.209774 
L 386.139477 176.762863 
L 388.266852 176.750995 
L 388.266852 176.542708 
L 390.498852 176.52434 
L 390.498852 174.293884 
L 392.844989 174.262847 
L 392.844989 174.154953 
L 395.317943 174.123175 
L 395.317943 173.113175 
L 397.930398 173.074561 
L 397.930398 172.812621 
L 400.704545 172.747138 
L 400.704545 157.077686 
L 403.656239 157.051977 
L 403.656239 156.781621 
L 406.810841 156.760004 
L 406.810841 155.826774 
L 410.203227 155.771748 
L 410.203227 155.541974 
L 413.861932 155.469002 
L 413.861932 150.845509 
L 417.844023 150.783659 
L 417.844023 150.403197 
L 419.971398 150.3968 
L 419.971398 150.267851 
L 422.203398 150.255675 
L 422.203398 148.157623 
L 427.022489 148.046722 
L 427.022489 147.138873 
L 429.634943 147.117643 
L 429.634943 146.951511 
L 432.409091 146.917956 
L 432.409091 133.180403 
L 435.360784 133.165931 
L 435.360784 132.974705 
L 438.515386 132.962287 
L 438.515386 132.155417 
L 441.907773 132.124924 
L 441.907773 131.957693 
L 445.566477 131.919419 
L 445.566477 127.771944 
L 449.548568 127.739663 
L 449.548568 127.478854 
L 453.907943 127.400701 
L 453.907943 125.698086 
L 458.727034 125.637227 
L 458.727034 125.031453 
L 462.705955 124.926477 
L 462.705955 124.914591 
L 464.113636 124.914591 
L 464.113636 112.913592 
L 467.06533 112.908609 
L 467.06533 112.790458 
L 470.219932 112.786806 
L 470.219932 112.191513 
L 473.612318 112.181516 
L 473.612318 112.071584 
L 477.271023 112.059263 
L 477.271023 108.58647 
L 481.253114 108.576986 
L 481.253114 108.410634 
L 485.612489 108.389438 
L 485.612489 107.155864 
L 490.43158 107.137436 
L 490.43158 106.766108 
L 495.818182 106.731402 
L 495.818182 96.139382 
L 501.924477 96.097371 
L 501.924477 95.730904 
L 508.975568 95.689935 
L 508.975568 93.07248 
L 517.317034 93.014429 
L 517.317034 92.295447 
L 522.136125 92.295447 
L 522.136125 92.171553 
L 527.522727 92.171553 
L 527.522727 82.936534 
L 533.629023 82.936534 
L 533.629023 82.814768 
L 540.680114 82.814768 
L 540.680114 81.236588 
L 549.02158 81.236588 
L 549.02158 81.01026 
L 559.227273 81.01026 
L 559.227273 73.747511 
L 572.384659 73.747511 
L 572.384659 73.215908 
L 590.931818 73.215908 
L 590.931818 68.748125 
L 622.636364 68.748125 
L 622.636364 67.201837 
L 622.636364 67.201837 
" style="fill:none;stroke:#0000ff;stroke-linecap:square;stroke-width:0.5;"/>
   </g>
   <g id="line2d_20">
    <path clip-path="url(#p151139576f)" d="M 115.363636 367.22865 
L 147.068182 367.22865 
L 147.068182 323.514463 
L 178.772727 323.514463 
L 178.772727 293.691331 
L 210.477273 293.691331 
L 210.477273 271.963165 
L 242.181818 271.963165 
L 242.181818 255.060913 
L 273.886364 255.04899 
L 273.886364 240.027071 
L 287.04375 240.005835 
L 287.04375 239.914249 
L 295.385216 239.875878 
L 295.385216 239.780287 
L 302.816761 239.6717 
L 302.816761 239.646632 
L 305.590909 239.644557 
L 305.590909 225.190336 
L 311.697205 225.13687 
L 311.697205 225.002845 
L 318.748295 224.928354 
L 318.748295 224.001261 
L 322.730386 223.969894 
L 322.730386 223.834715 
L 327.089761 223.771517 
L 327.089761 222.970159 
L 331.908852 222.92959 
L 331.908852 222.424925 
L 334.521307 222.392929 
L 334.521307 222.278328 
L 337.295455 222.260688 
L 337.295455 207.754272 
L 340.247148 207.73595 
L 340.247148 207.580316 
L 343.40175 207.571778 
L 343.40175 207.083932 
L 346.794136 207.043923 
L 346.794136 206.888275 
L 350.452841 206.826595 
L 350.452841 203.650516 
L 354.434932 203.55883 
L 354.434932 203.207479 
L 356.562307 203.194965 
L 356.562307 203.043827 
L 358.794307 203.031313 
L 358.794307 201.101017 
L 362.982477 200.995145 
L 362.982477 200.982858 
L 363.613398 200.982858 
L 363.613398 199.920864 
L 366.225852 199.87118 
L 366.225852 199.677732 
L 369 199.604424 
L 369 183.766903 
L 371.951693 183.730485 
L 371.951693 183.471907 
L 375.106295 183.451739 
L 375.106295 182.633773 
L 378.498682 182.554777 
L 378.498682 182.31848 
L 382.157386 182.233759 
L 382.157386 177.387807 
L 386.139477 177.283643 
L 386.139477 176.857452 
L 388.266852 176.846565 
L 388.266852 176.654335 
L 390.498852 176.639676 
L 390.498852 174.365181 
L 392.844989 174.331556 
L 392.844989 174.227531 
L 395.317943 174.192992 
L 395.317943 172.987801 
L 397.930398 172.943918 
L 397.930398 172.724543 
L 400.704545 172.648092 
L 400.704545 157.629372 
L 403.656239 157.598578 
L 403.656239 157.327981 
L 406.810841 157.308532 
L 406.810841 156.415357 
L 410.203227 156.346684 
L 410.203227 156.102813 
L 413.861932 156.03704 
L 413.861932 151.047826 
L 417.844023 150.975241 
L 417.844023 150.583546 
L 419.971398 150.576422 
L 419.971398 150.440982 
L 422.203398 150.43098 
L 422.203398 148.366283 
L 425.155091 148.255409 
L 425.155091 148.254549 
L 427.022489 148.236567 
L 427.022489 147.212953 
L 429.634943 147.188912 
L 429.634943 147.021008 
L 432.409091 146.978638 
L 432.409091 133.506701 
L 435.360784 133.490945 
L 435.360784 133.29337 
L 438.515386 133.281991 
L 438.515386 132.482353 
L 441.907773 132.44696 
L 441.907773 132.252348 
L 445.566477 132.215893 
L 445.566477 127.726527 
L 449.548568 127.691781 
L 449.548568 127.404523 
L 453.907943 127.327606 
L 453.907943 125.619701 
L 458.727034 125.554851 
L 458.727034 124.857717 
L 462.705955 124.74751 
L 462.705955 124.736271 
L 464.113636 124.736271 
L 464.113636 112.686553 
L 468.615682 112.576044 
L 468.615682 112.572886 
L 470.219932 112.572886 
L 470.219932 111.988055 
L 473.612318 111.97793 
L 473.612318 111.858189 
L 477.271023 111.847857 
L 477.271023 108.182284 
L 481.253114 108.173141 
L 481.253114 108.008094 
L 485.612489 107.988082 
L 485.612489 106.772388 
L 490.43158 106.75568 
L 490.43158 106.384257 
L 495.818182 106.349322 
L 495.818182 95.685406 
L 501.924477 95.653151 
L 501.924477 95.320661 
L 508.975568 95.280313 
L 508.975568 92.633673 
L 517.317034 92.58111 
L 517.317034 91.915514 
L 522.136125 91.915514 
L 522.136125 91.804023 
L 527.522727 91.804023 
L 527.522727 82.720295 
L 540.680114 82.613451 
L 540.680114 81.094428 
L 549.02158 81.094428 
L 549.02158 80.893148 
L 559.227273 80.893148 
L 559.227273 73.894382 
L 572.384659 73.894382 
L 572.384659 73.39712 
L 590.931818 73.39712 
L 590.931818 69.106923 
L 622.636364 69.106923 
L 622.636364 67.610505 
L 622.636364 67.610505 
" style="fill:none;stroke:#0000ff;stroke-linecap:square;stroke-width:0.5;"/>
   </g>
   <g id="line2d_21">
    <path clip-path="url(#p151139576f)" d="M 115.363636 366.597736 
L 147.068182 366.597736 
L 147.068182 323.389387 
L 178.772727 323.389387 
L 178.772727 293.852545 
L 210.477273 293.852545 
L 210.477273 271.961947 
L 242.181818 271.961947 
L 242.181818 255.059579 
L 273.886364 255.055409 
L 273.886364 240.067189 
L 291.025841 239.973083 
L 291.025841 239.950213 
L 295.385216 239.943474 
L 295.385216 239.80882 
L 304.183227 239.707839 
L 304.183227 239.695574 
L 305.590909 239.695574 
L 305.590909 225.190908 
L 311.697205 225.137871 
L 311.697205 225.018747 
L 318.748295 224.965606 
L 318.748295 224.18036 
L 322.730386 224.141059 
L 322.730386 223.970024 
L 327.089761 223.924009 
L 327.089761 223.100204 
L 331.908852 223.062314 
L 331.908852 222.626708 
L 334.521307 222.606216 
L 334.521307 222.495644 
L 337.295455 222.460334 
L 337.295455 207.624357 
L 340.247148 207.610031 
L 340.247148 207.439916 
L 343.40175 207.429414 
L 343.40175 206.966786 
L 346.794136 206.938125 
L 346.794136 206.802605 
L 350.452841 206.744252 
L 350.452841 203.790462 
L 354.434932 203.696519 
L 354.434932 203.307374 
L 356.562307 203.301628 
L 356.562307 203.149882 
L 358.794307 203.141572 
L 358.794307 201.124752 
L 363.613398 201.016778 
L 363.613398 200.059548 
L 366.225852 200.017347 
L 366.225852 199.809317 
L 369 199.720199 
L 369 183.584953 
L 371.951693 183.556643 
L 371.951693 183.265687 
L 375.106295 183.245047 
L 375.106295 182.438239 
L 378.498682 182.376745 
L 378.498682 182.151224 
L 382.157386 182.067688 
L 382.157386 177.386633 
L 386.139477 177.288823 
L 386.139477 176.826657 
L 388.266852 176.81767 
L 388.266852 176.640436 
L 390.498852 176.627735 
L 390.498852 174.292856 
L 392.844989 174.265618 
L 392.844989 174.162331 
L 395.317943 174.137038 
L 395.317943 173.014714 
L 397.930398 172.976465 
L 397.930398 172.758809 
L 400.704545 172.68198 
L 400.704545 157.433245 
L 403.656239 157.409767 
L 403.656239 157.115002 
L 406.810841 157.097795 
L 406.810841 156.212838 
L 410.203227 156.155309 
L 410.203227 155.921704 
L 413.861932 155.862592 
L 413.861932 151.009665 
L 417.844023 150.942002 
L 417.844023 150.533396 
L 419.971398 150.527722 
L 419.971398 150.410355 
L 422.203398 150.40123 
L 422.203398 148.290588 
L 425.766989 148.181875 
L 425.766989 148.171466 
L 427.022489 148.170731 
L 427.022489 147.193954 
L 429.634943 147.175946 
L 429.634943 147.01396 
L 432.409091 146.975615 
L 432.409091 133.382376 
L 435.360784 133.369364 
L 435.360784 133.158753 
L 438.515386 133.149466 
L 438.515386 132.365176 
L 441.907773 132.334136 
L 441.907773 132.147602 
L 445.566477 132.117566 
L 445.566477 127.756681 
L 449.548568 127.722871 
L 449.548568 127.428306 
L 453.907943 127.363823 
L 453.907943 125.648809 
L 458.727034 125.587691 
L 458.727034 124.910433 
L 462.705955 124.808835 
L 462.705955 124.799072 
L 464.113636 124.799072 
L 464.113636 112.642861 
L 467.06533 112.638733 
L 467.06533 112.525863 
L 470.219932 112.523438 
L 470.219932 111.954585 
L 473.612318 111.944749 
L 473.612318 111.829802 
L 477.271023 111.821241 
L 477.271023 108.238687 
L 481.253114 108.229179 
L 481.253114 108.060859 
L 485.612489 108.043719 
L 485.612489 106.825642 
L 490.43158 106.810281 
L 490.43158 106.443552 
L 495.818182 106.411615 
L 495.818182 95.671026 
L 501.924477 95.63703 
L 501.924477 95.317722 
L 508.975568 95.279164 
L 508.975568 92.662823 
L 517.317034 92.609291 
L 517.317034 91.940486 
L 522.136125 91.940486 
L 522.136125 91.827213 
L 527.522727 91.827213 
L 527.522727 82.687951 
L 540.680114 82.585386 
L 540.680114 81.071146 
L 549.02158 81.071146 
L 549.02158 80.866439 
L 559.227273 80.866439 
L 559.227273 73.823315 
L 572.384659 73.823315 
L 572.384659 73.317547 
L 590.931818 73.317547 
L 590.931818 68.986746 
L 622.636364 68.986746 
L 622.636364 67.461914 
L 622.636364 67.461914 
" style="fill:none;stroke:#0000ff;stroke-linecap:square;stroke-width:0.5;"/>
   </g>
   <g id="line2d_22">
    <path clip-path="url(#p151139576f)" d="M 115.363636 367.598806 
L 147.068182 367.598806 
L 147.068182 323.538964 
L 178.772727 323.538964 
L 178.772727 293.639166 
L 210.477273 293.639166 
L 210.477273 271.970475 
L 242.181818 271.970475 
L 242.181818 255.058078 
L 273.886364 255.053575 
L 273.886364 240.060825 
L 287.04375 240.038643 
L 287.04375 239.934856 
L 295.385216 239.901287 
L 295.385216 239.813418 
L 305.590909 239.729265 
L 305.590909 225.266003 
L 311.697205 225.212965 
L 311.697205 225.056985 
L 318.748295 224.97425 
L 318.748295 223.96775 
L 322.730386 223.935531 
L 322.730386 223.793804 
L 327.089761 223.733565 
L 327.089761 222.923272 
L 331.908852 222.901922 
L 331.908852 222.473013 
L 334.521307 222.451427 
L 334.521307 222.324929 
L 337.295455 222.302306 
L 337.295455 207.779044 
L 340.247148 207.770596 
L 340.247148 207.613128 
L 343.40175 207.606393 
L 343.40175 207.048488 
L 346.794136 207.013676 
L 346.794136 206.854586 
L 350.452841 206.794133 
L 350.452841 203.324137 
L 354.434932 203.237445 
L 354.434932 202.925433 
L 356.562307 202.914573 
L 356.562307 202.744846 
L 358.794307 202.737535 
L 358.794307 200.783371 
L 363.613398 200.676695 
L 363.613398 199.629237 
L 366.225852 199.576989 
L 366.225852 199.368774 
L 369 199.299984 
L 369 183.712465 
L 371.951693 183.682583 
L 371.951693 183.399284 
L 375.106295 183.378663 
L 375.106295 182.508686 
L 378.498682 182.440765 
L 378.498682 182.199746 
L 382.157386 182.121206 
L 382.157386 176.986023 
L 386.139477 176.880419 
L 386.139477 176.455893 
L 388.266852 176.446606 
L 388.266852 176.254556 
L 390.498852 176.244315 
L 390.498852 173.990548 
L 392.844989 173.970553 
L 392.844989 173.875578 
L 395.317943 173.851184 
L 395.317943 172.603963 
L 397.930398 172.567332 
L 397.930398 172.355939 
L 400.704545 172.281461 
L 400.704545 157.548957 
L 403.656239 157.524475 
L 403.656239 157.232117 
L 406.810841 157.215433 
L 406.810841 156.239412 
L 410.203227 156.18202 
L 410.203227 155.94365 
L 413.861932 155.888362 
L 413.861932 150.763665 
L 417.844023 150.696646 
L 417.844023 150.320233 
L 419.971398 150.314626 
L 419.971398 150.188233 
L 422.203398 150.179597 
L 422.203398 148.106812 
L 425.766989 148.006773 
L 425.766989 147.995358 
L 427.022489 147.994536 
L 427.022489 146.959841 
L 429.634943 146.943179 
L 429.634943 146.7946 
L 432.409091 146.754737 
L 432.409091 133.494709 
L 435.360784 133.481352 
L 435.360784 133.272567 
L 438.515386 133.263099 
L 438.515386 132.425859 
L 441.907773 132.393109 
L 441.907773 132.210702 
L 445.566477 132.182266 
L 445.566477 127.62919 
L 449.548568 127.595445 
L 449.548568 127.314675 
L 453.907943 127.24583 
L 453.907943 125.569149 
L 458.727034 125.510013 
L 458.727034 124.805585 
L 464.113636 124.697621 
L 464.113636 112.811142 
L 467.06533 112.807038 
L 467.06533 112.695181 
L 470.219932 112.692575 
L 470.219932 112.091436 
L 473.612318 112.08079 
L 473.612318 111.967108 
L 477.271023 111.959675 
L 477.271023 108.230557 
L 481.253114 108.220746 
L 481.253114 108.055504 
L 485.612489 108.037784 
L 485.612489 106.825348 
L 490.43158 106.810168 
L 490.43158 106.431068 
L 495.818182 106.399514 
L 495.818182 95.787696 
L 501.924477 95.754863 
L 501.924477 95.425086 
L 508.975568 95.387336 
L 508.975568 92.685117 
L 517.317034 92.632976 
L 517.317034 91.967105 
L 522.136125 91.967105 
L 522.136125 91.854557 
L 527.522727 91.854557 
L 527.522727 82.703243 
L 540.680114 82.601891 
L 540.680114 81.065255 
L 549.02158 81.065255 
L 549.02158 80.869349 
L 559.227273 80.869349 
L 559.227273 73.791222 
L 572.384659 73.791222 
L 572.384659 73.297099 
L 590.931818 73.297099 
L 590.931818 69.004217 
L 622.636364 69.004217 
L 622.636364 67.53696 
L 622.636364 67.53696 
" style="fill:none;stroke:#0000ff;stroke-linecap:square;stroke-width:0.5;"/>
   </g>
   <g id="line2d_23">
    <path clip-path="url(#p151139576f)" d="M 115.363636 369.36 
L 147.068182 369.36 
L 147.068182 323.813693 
L 178.772727 323.813693 
L 178.772727 293.51127 
L 210.477273 293.51127 
L 210.477273 272.117063 
L 242.181818 272.117063 
L 242.181818 255.04799 
L 273.886364 255.043323 
L 273.886364 239.818391 
L 295.385216 239.718995 
L 295.385216 239.644817 
L 305.590909 239.569376 
L 305.590909 225.189453 
L 311.697205 225.15653 
L 311.697205 225.039385 
L 318.748295 224.967968 
L 318.748295 224.237176 
L 322.730386 224.199696 
L 322.730386 224.094792 
L 327.089761 224.057119 
L 327.089761 223.390242 
L 331.908852 223.365214 
L 331.908852 222.984693 
L 335.887773 222.883003 
L 335.887773 222.864976 
L 337.295455 222.863628 
L 337.295455 207.96434 
L 340.247148 207.949252 
L 340.247148 207.807913 
L 343.40175 207.799716 
L 343.40175 207.292126 
L 346.794136 207.262823 
L 346.794136 207.098975 
L 350.452841 207.045016 
L 350.452841 204.212109 
L 354.434932 204.13172 
L 354.434932 203.823893 
L 356.562307 203.81566 
L 356.562307 203.689274 
L 358.794307 203.679704 
L 358.794307 201.899555 
L 362.982477 201.798529 
L 362.982477 201.787823 
L 363.613398 201.787823 
L 363.613398 200.859716 
L 366.225852 200.804826 
L 366.225852 200.640075 
L 369 200.574913 
L 369 183.852401 
L 371.951693 183.821433 
L 371.951693 183.56328 
L 375.106295 183.539361 
L 375.106295 182.719821 
L 378.498682 182.65555 
L 378.498682 182.410139 
L 382.157386 182.330959 
L 382.157386 177.897043 
L 386.139477 177.788165 
L 386.139477 177.38156 
L 388.266852 177.370739 
L 388.266852 177.184045 
L 390.498852 177.165146 
L 390.498852 174.909689 
L 392.844989 174.883545 
L 392.844989 174.785594 
L 395.317943 174.748136 
L 395.317943 173.620874 
L 397.930398 173.571991 
L 397.930398 173.357558 
L 400.704545 173.292301 
L 400.704545 157.609217 
L 403.656239 157.583075 
L 403.656239 157.304845 
L 406.810841 157.281676 
L 406.810841 156.382058 
L 410.203227 156.324021 
L 410.203227 156.070985 
L 413.861932 155.999276 
L 413.861932 151.333971 
L 417.844023 151.264441 
L 417.844023 150.875724 
L 419.971398 150.870408 
L 419.971398 150.731823 
L 422.203398 150.718408 
L 422.203398 148.606049 
L 425.766989 148.502042 
L 425.766989 148.486049 
L 427.022489 148.484066 
L 427.022489 147.502787 
L 429.634943 147.476611 
L 429.634943 147.312687 
L 432.409091 147.278967 
L 432.409091 133.379125 
L 435.360784 133.36383 
L 435.360784 133.158317 
L 438.515386 133.14531 
L 438.515386 132.379666 
L 441.907773 132.349198 
L 441.907773 132.152523 
L 445.566477 132.113949 
L 445.566477 127.8385 
L 449.548568 127.8047 
L 449.548568 127.523422 
L 453.907943 127.444463 
L 453.907943 125.75762 
L 458.727034 125.697824 
L 458.727034 125.025621 
L 462.705955 124.917957 
L 462.705955 124.908914 
L 464.113636 124.908914 
L 464.113636 112.579468 
L 467.06533 112.574772 
L 467.06533 112.459218 
L 470.219932 112.455997 
L 470.219932 111.903535 
L 473.612318 111.894414 
L 473.612318 111.769771 
L 477.271023 111.759838 
L 477.271023 108.228728 
L 481.253114 108.219571 
L 481.253114 108.052588 
L 485.612489 108.032183 
L 485.612489 106.837072 
L 490.43158 106.822697 
L 490.43158 106.450081 
L 495.818182 106.417974 
L 495.818182 95.588173 
L 501.924477 95.552592 
L 501.924477 95.229155 
L 508.975568 95.186432 
L 508.975568 92.618318 
L 517.317034 92.564208 
L 517.317034 91.887923 
L 522.136125 91.887923 
L 522.136125 91.77075 
L 527.522727 91.77075 
L 527.522727 82.647779 
L 540.680114 82.542859 
L 540.680114 81.029345 
L 549.02158 81.029345 
L 549.02158 80.815757 
L 559.227273 80.815757 
L 559.227273 73.872164 
L 572.384659 73.872164 
L 572.384659 73.353779 
L 590.931818 73.353779 
L 590.931818 69.113371 
L 622.636364 69.113371 
L 622.636364 67.631626 
L 622.636364 67.631626 
" style="fill:none;stroke:#0000ff;stroke-linecap:square;stroke-width:0.5;"/>
   </g>
   <g id="line2d_24">
    <path clip-path="url(#p151139576f)" d="M 115.363636 367.474618 
L 147.068182 367.474618 
L 147.068182 323.705179 
L 178.772727 323.705179 
L 178.772727 293.686235 
L 210.477273 293.686235 
L 210.477273 271.944091 
L 242.181818 271.944091 
L 242.181818 254.998461 
L 273.886364 254.9963 
L 273.886364 240.030058 
L 295.385216 239.919286 
L 295.385216 239.823365 
L 305.590909 239.727665 
L 305.590909 225.165435 
L 311.697205 225.119144 
L 311.697205 225.002468 
L 318.748295 224.96256 
L 318.748295 224.141665 
L 322.730386 224.103408 
L 322.730386 223.972167 
L 327.089761 223.929923 
L 327.089761 223.206779 
L 331.908852 223.180667 
L 331.908852 222.749176 
L 334.521307 222.737317 
L 334.521307 222.594673 
L 337.295455 222.57316 
L 337.295455 207.724607 
L 340.247148 207.712214 
L 340.247148 207.544134 
L 343.40175 207.534771 
L 343.40175 207.055781 
L 346.794136 207.030908 
L 346.794136 206.9071 
L 350.452841 206.861871 
L 350.452841 203.803953 
L 354.434932 203.716061 
L 354.434932 203.363695 
L 356.562307 203.357509 
L 356.562307 203.212549 
L 358.794307 203.204136 
L 358.794307 201.30352 
L 363.613398 201.200734 
L 363.613398 200.269482 
L 366.225852 200.232413 
L 366.225852 199.987268 
L 369 199.906081 
L 369 183.718907 
L 371.951693 183.6905 
L 371.951693 183.404915 
L 375.106295 183.382065 
L 375.106295 182.567827 
L 378.498682 182.503538 
L 378.498682 182.287054 
L 382.157386 182.20821 
L 382.157386 177.436934 
L 386.139477 177.330081 
L 386.139477 176.890154 
L 388.266852 176.881166 
L 388.266852 176.689278 
L 390.498852 176.676204 
L 390.498852 174.429481 
L 392.844989 174.401195 
L 392.844989 174.293081 
L 395.317943 174.269802 
L 395.317943 173.161715 
L 397.930398 173.129165 
L 397.930398 172.884341 
L 400.704545 172.80713 
L 400.704545 157.592376 
L 403.656239 157.568841 
L 403.656239 157.265053 
L 406.810841 157.246609 
L 406.810841 156.35481 
L 410.203227 156.297345 
L 410.203227 156.051065 
L 413.861932 155.992844 
L 413.861932 151.054023 
L 417.844023 150.983099 
L 417.844023 150.557359 
L 419.971398 150.551468 
L 419.971398 150.419541 
L 422.203398 150.410743 
L 422.203398 148.351388 
L 424.549534 148.335207 
L 424.549534 148.239072 
L 427.022489 148.228423 
L 427.022489 147.218269 
L 429.634943 147.203144 
L 429.634943 147.030767 
L 432.409091 146.994219 
L 432.409091 133.410044 
L 435.360784 133.398058 
L 435.360784 133.185258 
L 438.515386 133.174983 
L 438.515386 132.370633 
L 441.907773 132.339738 
L 441.907773 132.145529 
L 445.566477 132.117039 
L 445.566477 127.737362 
L 449.548568 127.703594 
L 449.548568 127.402762 
L 453.907943 127.336951 
L 453.907943 125.621831 
L 458.727034 125.558125 
L 458.727034 124.865625 
L 462.705955 124.763568 
L 462.705955 124.754041 
L 464.113636 124.754041 
L 464.113636 112.663979 
L 467.06533 112.660068 
L 467.06533 112.549787 
L 470.219932 112.546775 
L 470.219932 111.962224 
L 473.612318 111.951597 
L 473.612318 111.834115 
L 477.271023 111.825825 
L 477.271023 108.229728 
L 481.253114 108.219669 
L 481.253114 108.051672 
L 485.612489 108.034559 
L 485.612489 106.809061 
L 490.43158 106.792327 
L 490.43158 106.427571 
L 495.818182 106.393473 
L 495.818182 95.675073 
L 501.924477 95.638959 
L 501.924477 95.311136 
L 508.975568 95.270091 
L 508.975568 92.668466 
L 517.317034 92.614405 
L 517.317034 91.941511 
L 522.136125 91.941511 
L 522.136125 91.82729 
L 527.522727 91.82729 
L 527.522727 82.691816 
L 540.680114 82.584766 
L 540.680114 81.079827 
L 549.02158 81.079827 
L 549.02158 80.869821 
L 559.227273 80.869821 
L 559.227273 73.831 
L 572.384659 73.831 
L 572.384659 73.322744 
L 590.931818 73.322744 
L 590.931818 68.985899 
L 622.636364 68.985899 
L 622.636364 67.449247 
L 622.636364 67.449247 
" style="fill:none;stroke:#0000ff;stroke-linecap:square;stroke-width:0.5;"/>
   </g>
   <g id="line2d_25"/>
   <g id="line2d_26"/>
   <g id="line2d_27"/>
   <g id="line2d_28"/>
   <g id="line2d_29"/>
   <g id="line2d_30"/>
   <g id="line2d_31"/>
   <g id="line2d_32"/>
   <g id="line2d_33"/>
   <g id="line2d_34"/>
   <g id="line2d_35">
    <path clip-path="url(#p151139576f)" d="M 115.363636 367.661206 
L 147.068182 367.661206 
L 147.068182 323.489993 
L 178.772727 323.489993 
L 178.772727 293.583976 
L 210.477273 293.583976 
L 210.477273 271.543334 
L 242.181818 271.543334 
L 242.181818 254.983836 
L 273.886364 254.983836 
L 273.886364 240.07363 
L 295.385216 239.970067 
L 295.385216 239.864666 
L 305.590909 239.78835 
L 305.590909 224.516259 
L 311.697205 224.46712 
L 311.697205 224.370416 
L 318.748295 224.335553 
L 318.748295 223.662775 
L 322.730386 223.624912 
L 322.730386 223.518938 
L 327.089761 223.470347 
L 327.089761 222.849538 
L 331.908852 222.828117 
L 331.908852 222.477456 
L 334.521307 222.469891 
L 334.521307 222.362032 
L 337.295455 222.344492 
L 337.295455 206.57739 
L 340.247148 206.567458 
L 340.247148 206.413605 
L 343.40175 206.398245 
L 343.40175 205.94514 
L 346.794136 205.919851 
L 346.794136 205.814205 
L 350.452841 205.775172 
L 350.452841 203.240826 
L 354.434932 203.166658 
L 354.434932 202.863966 
L 356.562307 202.857208 
L 356.562307 202.735251 
L 358.794307 202.720979 
L 358.794307 201.050986 
L 363.613398 200.944657 
L 363.613398 200.122546 
L 366.225852 200.08093 
L 366.225852 199.881922 
L 369 199.801465 
L 369 182.52486 
L 371.951693 182.493673 
L 371.951693 182.217581 
L 375.106295 182.190064 
L 375.106295 181.430021 
L 378.498682 181.354502 
L 378.498682 181.175332 
L 382.157386 181.102681 
L 382.157386 176.828076 
L 386.139477 176.726397 
L 386.139477 176.295931 
L 388.266852 176.28919 
L 388.266852 176.11055 
L 390.498852 176.090928 
L 390.498852 174.064555 
L 392.844989 174.039088 
L 392.844989 173.934079 
L 395.317943 173.91106 
L 395.317943 172.889686 
L 397.930398 172.858053 
L 397.930398 172.639806 
L 400.704545 172.573899 
L 400.704545 156.499616 
L 403.656239 156.477516 
L 403.656239 156.16494 
L 406.810841 156.146443 
L 406.810841 155.313943 
L 410.203227 155.263382 
L 410.203227 155.051703 
L 413.861932 155.006865 
L 413.861932 150.528284 
L 417.844023 150.470867 
L 417.844023 150.090797 
L 419.971398 150.086881 
L 419.971398 149.970161 
L 422.203398 149.957685 
L 422.203398 148.077681 
L 427.022489 147.977089 
L 427.022489 147.044553 
L 429.634943 147.028593 
L 429.634943 146.881535 
L 432.409091 146.846725 
L 432.409091 132.865692 
L 435.360784 132.852538 
L 435.360784 132.640945 
L 438.515386 132.631006 
L 438.515386 131.918907 
L 441.907773 131.889094 
L 441.907773 131.742184 
L 445.566477 131.717376 
L 445.566477 127.646505 
L 449.548568 127.614103 
L 449.548568 127.355595 
L 453.907943 127.282239 
L 453.907943 125.752315 
L 458.727034 125.692227 
L 458.727034 125.080598 
L 464.113636 124.974231 
L 464.113636 112.842394 
L 467.06533 112.837433 
L 467.06533 112.705192 
L 470.219932 112.702234 
L 470.219932 112.171366 
L 473.612318 112.161164 
L 473.612318 112.058649 
L 477.271023 112.050099 
L 477.271023 108.674525 
L 481.253114 108.662485 
L 481.253114 108.487307 
L 485.612489 108.46768 
L 485.612489 107.338953 
L 490.43158 107.319425 
L 490.43158 106.933946 
L 495.818182 106.899465 
L 495.818182 96.238896 
L 501.924477 96.188256 
L 501.924477 95.838163 
L 508.975568 95.795786 
L 508.975568 93.24281 
L 517.317034 93.178811 
L 517.317034 92.479684 
L 522.136125 92.479684 
L 522.136125 92.344561 
L 527.522727 92.344561 
L 527.522727 83.155355 
L 533.629023 83.155355 
L 533.629023 83.033261 
L 540.680114 83.033261 
L 540.680114 81.393318 
L 549.02158 81.393318 
L 549.02158 81.157719 
L 559.227273 81.157719 
L 559.227273 73.908416 
L 572.384659 73.908416 
L 572.384659 73.306335 
L 590.931818 73.306335 
L 590.931818 68.673746 
L 622.636364 68.673746 
L 622.636364 66.96 
L 622.636364 66.96 
" style="fill:none;stroke:#ff0000;stroke-linecap:square;stroke-width:0.5;"/>
   </g>
   <g id="patch_3">
    <path d="M 90 384.48 
L 90 51.84 
" style="fill:none;stroke:#000000;stroke-linecap:square;stroke-linejoin:miter;stroke-width:0.8;"/>
   </g>
   <g id="patch_4">
    <path d="M 648 384.48 
L 648 51.84 
" style="fill:none;stroke:#000000;stroke-linecap:square;stroke-linejoin:miter;stroke-width:0.8;"/>
   </g>
   <g id="patch_5">
    <path d="M 90 384.48 
L 648 384.48 
" style="fill:none;stroke:#000000;stroke-linecap:square;stroke-linejoin:miter;stroke-width:0.8;"/>
   </g>
   <g id="patch_6">
    <path d="M 90 51.84 
L 648 51.84 
" style="fill:none;stroke:#000000;stroke-linecap:square;stroke-linejoin:miter;stroke-width:0.8;"/>
   </g>
   <g id="legend_1"/>
  </g>
 </g>
 <defs>
  <clipPath id="p151139576f">
   <rect height="332.64" width="558" x="90" y="51.84"/>
  </clipPath>
 </defs>
</svg>
